<?xml version="1.0" standalone="no"?>
<!DOCTYPE svg PUBLIC "-//W3C//DTD SVG 20010904//EN"
 "http://www.w3.org/TR/2001/REC-SVG-20010904/DTD/svg10.dtd">
<svg version="1.0" xmlns="http://www.w3.org/2000/svg"
 width="16.000000pt" height="16.000000pt" viewBox="0 0 16.000000 16.000000"
 preserveAspectRatio="xMidYMid meet">
<metadata>
Created by potrace 1.11, written by Peter Selinger 2001-2013
</metadata>
<g transform="translate(0.000000,16.000000) scale(0.001942,-0.001942)"
fill="#000000" stroke="none">
<path d="M4028 7631 c-7 -2 -17 -10 -21 -17 -9 -15 -57 -19 -57 -5 0 5 -9 7
-20 4 -11 -3 -20 -9 -20 -14 0 -5 -22 -9 -48 -9 -26 0 -54 -6 -60 -12 -7 -7
-27 -13 -44 -14 -17 -1 -34 -7 -38 -14 -4 -7 -15 -10 -23 -7 -9 3 -17 -2 -20
-14 -3 -10 -13 -19 -24 -19 -13 0 -15 2 -5 9 11 6 10 10 -4 15 -12 5 -23 1
-32 -11 -7 -10 -18 -17 -23 -15 -5 1 -9 -2 -9 -7 0 -9 -48 -26 -62 -23 -5 1
-8 -1 -8 -6 0 -4 -17 -16 -37 -27 -46 -23 -93 -64 -93 -81 0 -12 -29 -26 -46
-23 -21 4 -33 -4 -84 -51 -30 -27 -60 -50 -67 -50 -7 0 -10 -7 -6 -17 5 -12 2
-15 -10 -10 -9 3 -17 2 -17 -3 0 -4 -16 -14 -36 -20 -27 -9 -35 -17 -31 -30 6
-22 -22 -36 -35 -18 -6 9 -7 5 -3 -10 4 -15 1 -24 -10 -28 -9 -4 -14 -13 -11
-20 3 -8 1 -14 -4 -14 -6 0 -10 -6 -10 -12 0 -7 -19 -32 -41 -56 -23 -24 -39
-45 -36 -49 3 -3 -3 -14 -13 -26 -11 -11 -17 -24 -15 -28 3 -4 -4 -11 -15 -14
-16 -5 -18 -10 -11 -19 13 -15 4 -27 -14 -20 -9 4 -13 -5 -12 -30 1 -43 -21
-86 -44 -86 -20 0 -32 -14 -22 -24 22 -22 1 -65 -22 -46 -6 5 -17 5 -25 -1
-10 -6 -11 -12 -5 -16 6 -5 12 -21 14 -38 l3 -30 -23 20 -23 20 24 -39 c23
-38 23 -39 4 -53 -17 -13 -19 -12 -25 14 -4 24 -6 21 -13 -21 -6 -35 -10 -45
-17 -35 -8 12 -10 12 -18 0 -5 -8 -7 -20 -4 -28 3 -7 0 -13 -7 -13 -7 0 -10
-8 -7 -20 3 -11 1 -18 -3 -15 -11 7 -24 -59 -15 -77 3 -7 -1 -4 -9 6 -16 19
-16 19 -16 -6 0 -15 -5 -30 -10 -33 -6 -4 -10 -12 -8 -18 1 -7 -4 -30 -10 -52
-8 -26 -8 -41 -1 -45 6 -4 4 -12 -6 -20 -8 -7 -15 -23 -15 -35 0 -12 -7 -39
-15 -58 -9 -23 -11 -38 -5 -42 14 -9 12 -25 -2 -23 -9 2 -14 -13 -15 -47 -3
-66 -12 -117 -25 -132 -6 -8 -7 -13 -1 -13 6 0 10 -38 10 -87 0 -132 10 -283
21 -328 6 -22 13 -62 17 -89 4 -31 15 -56 30 -70 20 -19 22 -28 17 -81 -3 -33
-5 -81 -4 -107 0 -27 -3 -48 -7 -48 -5 0 -7 -12 -5 -27 4 -42 6 -77 4 -83 -1
-3 -3 -18 -5 -35 -5 -51 -12 -81 -20 -94 -4 -7 -9 -42 -11 -78 -1 -40 -8 -69
-15 -74 -11 -6 -10 -12 2 -26 24 -28 42 -100 45 -183 5 -108 11 -163 23 -208
14 -51 22 -101 22 -132 0 -31 36 -149 50 -167 7 -7 15 -48 20 -91 6 -62 16
-94 51 -162 24 -47 51 -96 61 -110 9 -13 17 -34 17 -47 0 -12 4 -24 9 -27 5
-3 12 -21 15 -40 4 -19 10 -36 14 -38 15 -6 57 -83 73 -132 16 -50 15 -96 -3
-96 -5 0 -8 -15 -6 -32 3 -32 1 -33 -30 -31 -31 1 -32 0 -17 -17 14 -15 14
-19 1 -29 -8 -7 -12 -19 -9 -27 3 -8 2 -22 -1 -31 -6 -15 -8 -15 -16 -3 -6 8
-10 27 -10 41 0 18 -6 28 -19 32 -14 3 -18 1 -14 -9 3 -8 9 -14 14 -14 5 0 9
-13 9 -30 0 -33 -11 -38 -30 -15 -7 8 -18 15 -25 15 -7 0 -15 7 -19 15 -9 24
-21 18 -23 -12 0 -16 2 -21 7 -13 5 9 9 9 15 1 9 -16 -13 -41 -36 -41 -10 0
-21 -5 -24 -11 -5 -7 -13 -5 -24 5 -18 16 -30 12 -47 -19 -8 -15 -21 -20 -50
-19 -22 0 -47 4 -56 8 -12 5 -18 4 -18 -4 0 -6 4 -9 9 -6 12 8 23 -41 15 -66
-4 -14 -12 -18 -26 -15 -13 4 -18 1 -15 -7 8 -19 -24 -33 -71 -30 -23 1 -44
-2 -47 -6 -3 -5 -14 -6 -26 -3 -17 5 -19 2 -13 -21 4 -16 2 -26 -5 -26 -6 0
-11 -10 -11 -22 0 -17 -3 -19 -12 -10 -7 7 -20 12 -30 12 -23 0 -23 19 0 36
16 13 16 13 0 14 -11 0 -20 -10 -23 -27 -10 -44 -20 -58 -49 -61 -14 -2 -26
-7 -26 -11 0 -14 -58 -34 -72 -25 -8 5 -6 -2 4 -18 14 -21 15 -28 5 -36 -18
-16 -79 -12 -99 6 -17 14 -18 13 -20 -9 0 -13 -2 -31 -2 -39 -1 -10 -9 -14
-24 -12 -15 2 -22 -2 -22 -13 0 -12 -6 -15 -19 -10 -11 3 -22 1 -26 -5 -3 -5
-14 -10 -24 -10 -10 0 -24 -7 -31 -15 -7 -8 -19 -15 -27 -15 -8 0 -24 -10 -35
-22 -11 -13 -17 -17 -13 -10 4 7 -1 12 -13 12 -11 0 -22 -8 -24 -17 -6 -24
-82 -60 -128 -62 -14 0 -49 -5 -79 -10 -29 -4 -62 -6 -72 -4 -11 3 -19 0 -19
-6 0 -6 -13 -11 -28 -11 -29 0 -62 -26 -62 -49 0 -7 -6 -11 -13 -8 -8 3 -28
-8 -45 -24 -17 -16 -38 -29 -46 -29 -8 0 -18 -4 -21 -10 -4 -6 -41 -9 -88 -7
-73 2 -82 0 -79 -15 2 -10 -2 -18 -8 -18 -6 0 -9 -8 -6 -18 9 -29 -22 -94 -60
-128 -35 -30 -35 -32 -24 -72 9 -36 15 -42 45 -48 40 -7 48 -15 66 -68 17 -46
31 -54 64 -32 26 17 103 28 120 18 6 -4 19 -8 30 -9 11 -2 31 -8 45 -13 14 -6
79 -12 145 -14 102 -3 126 -1 162 15 23 10 59 22 80 25 21 3 40 8 42 10 2 2
11 -2 19 -9 13 -10 15 -9 9 7 -6 15 -5 17 7 7 19 -16 74 -10 81 8 4 10 8 12
13 4 4 -6 34 -12 67 -13 74 -4 134 0 118 7 -25 9 -13 22 12 13 24 -9 29 -6 26
14 -1 5 5 6 13 3 18 -7 81 17 93 35 4 7 28 29 53 47 25 19 49 41 53 48 4 7 13
13 18 13 14 0 167 133 202 176 16 19 34 31 40 27 7 -3 9 -3 5 2 -4 4 5 24 20
43 34 46 112 128 112 119 0 -4 14 0 32 9 22 11 33 13 36 5 2 -6 10 -11 18 -11
23 0 63 -30 58 -43 -2 -7 9 -27 26 -45 37 -41 53 -69 45 -82 -3 -6 0 -10 8
-10 8 0 39 -30 70 -68 30 -37 77 -90 103 -118 57 -60 66 -71 117 -141 27 -37
45 -53 60 -52 12 0 16 3 10 6 -7 2 -13 11 -13 19 0 9 -4 12 -10 9 -5 -3 -10 1
-10 9 0 9 -5 16 -11 16 -5 0 -8 4 -5 9 3 5 -1 11 -9 15 -8 3 -15 12 -15 21 0
8 -4 15 -9 15 -5 0 -24 25 -41 55 -17 30 -36 55 -41 55 -5 0 -9 6 -9 14 0 7
-18 33 -40 56 -38 40 -45 53 -40 75 1 5 -6 15 -16 22 -14 10 -16 25 -11 105 3
51 11 134 16 183 6 50 13 170 16 267 3 98 8 178 11 178 12 1 64 -86 64 -107 0
-12 9 -38 20 -58 11 -20 20 -43 20 -51 0 -9 18 -33 39 -54 22 -22 42 -48 46
-60 3 -11 11 -20 16 -20 15 0 78 -61 85 -82 3 -11 12 -17 19 -14 7 2 21 -4 31
-15 9 -10 23 -19 31 -19 7 0 13 -4 13 -10 0 -5 7 -10 16 -10 10 0 14 -6 11
-14 -8 -20 4 -28 20 -15 10 9 17 7 31 -8 9 -11 35 -24 57 -28 39 -9 50 -10 88
-14 9 0 17 -6 17 -12 0 -6 -7 -8 -16 -5 -8 3 -12 2 -9 -4 3 -6 19 -10 34 -10
15 0 32 -5 38 -11 5 -5 59 -12 119 -15 60 -3 118 -9 129 -14 11 -5 46 -13 78
-18 46 -7 61 -6 72 4 17 17 29 18 19 2 -5 -8 0 -9 17 -4 40 12 72 17 111 17
20 -1 40 4 43 9 3 6 15 10 26 10 11 0 22 6 25 14 3 8 12 12 20 9 8 -3 20 -1
27 4 6 5 31 15 55 22 23 6 42 15 42 20 0 4 14 8 32 8 21 0 36 7 46 21 8 12 22
22 32 22 10 0 21 7 24 16 3 8 10 13 14 10 5 -3 16 4 25 15 9 10 26 19 37 19
11 0 23 7 26 15 4 8 12 15 20 15 7 0 20 13 28 29 9 16 28 43 43 61 25 30 26
33 9 45 -13 10 -14 15 -5 21 7 4 18 -1 26 -11 11 -16 13 -17 13 -3 0 9 5 20
12 24 7 4 8 3 4 -4 -4 -7 -2 -12 3 -12 15 0 14 27 0 36 -8 5 -6 10 5 16 9 5
16 16 16 23 0 14 12 19 33 16 4 0 7 4 7 10 0 6 -9 9 -20 6 -11 -3 -23 -1 -26
4 -3 5 6 9 19 9 21 0 23 4 19 30 -2 17 1 37 8 45 10 12 10 19 -1 33 -12 15
-12 16 2 5 9 -7 18 -11 21 -8 2 3 4 -5 3 -18 -2 -12 -8 -21 -14 -19 -7 1 -10
-2 -6 -8 10 -16 44 7 51 35 6 25 18 32 27 18 2 -5 2 -2 1 5 -2 7 5 20 15 29
11 9 17 23 13 31 -4 11 -1 14 10 9 20 -7 58 27 81 71 8 18 12 30 7 27 -4 -3
-6 4 -3 16 4 13 11 18 20 14 12 -4 14 0 9 18 -6 24 17 67 35 67 18 0 33 23 53
80 11 30 25 65 31 77 14 26 -2 96 -19 86 -5 -3 -6 -1 -3 5 8 12 -2 42 -14 42
-12 0 -11 -47 1 -55 6 -3 10 -12 10 -18 0 -7 -5 -4 -11 6 -5 9 -15 17 -20 17
-6 0 -18 7 -27 16 -14 15 -14 17 1 26 18 10 23 38 7 38 -5 0 -10 -7 -10 -15 0
-19 -5 -19 -36 2 -19 12 -22 18 -12 24 9 6 8 10 -6 15 -22 8 -66 48 -66 59 0
11 -32 34 -47 35 -8 0 -13 -13 -13 -31 0 -36 -21 -35 -30 2 -5 20 -7 21 -13 7
-12 -32 -26 -19 -26 25 1 90 -8 128 -42 174 -19 24 -34 48 -34 51 -2 25 -19
52 -32 52 -12 0 -13 3 -4 13 8 11 5 17 -13 26 -13 7 -29 24 -35 38 -9 20 -17
24 -37 20 -17 -3 -33 2 -45 14 -17 17 -18 17 -24 -2 -7 -22 -16 -24 -32 -8
-17 17 -25 -7 -11 -33 7 -13 14 -24 15 -26 1 -2 12 2 25 10 12 7 30 13 39 14
14 1 15 -3 7 -28 -6 -15 -7 -40 -4 -54 7 -25 5 -26 -20 -20 -19 5 -30 2 -41
-11 -10 -13 -13 -14 -10 -3 2 8 -5 23 -15 34 -10 11 -18 34 -18 50 -1 35 -26
70 -58 80 -12 4 -22 12 -22 17 0 6 5 7 11 3 7 -4 9 1 7 12 -2 11 -10 18 -16
17 -7 -2 -12 2 -12 8 0 6 -7 9 -15 6 -19 -8 -32 13 -15 23 8 5 10 15 5 26 -5
11 -7 24 -6 31 3 18 -13 23 -45 14 -25 -6 -30 -4 -45 23 -20 37 -49 47 -49 17
0 -23 -7 -26 -28 -12 -11 6 -10 10 4 15 15 6 16 9 4 16 -9 6 -17 5 -22 -3 -5
-8 -13 -6 -27 7 -18 17 -25 15 -23 -5 1 -3 -18 -4 -40 -2 -22 2 -46 -2 -53 -7
-9 -7 -15 -7 -19 -1 -4 5 -18 8 -31 5 -16 -3 -27 1 -31 10 -3 8 -16 17 -29 20
-13 3 -27 15 -30 27 -7 22 -45 40 -87 41 -15 1 -25 5 -21 11 3 5 -3 7 -16 3
-11 -3 -31 -9 -42 -12 -12 -3 -36 -7 -53 -8 -40 -3 -68 -19 -119 -67 -23 -22
-50 -42 -60 -45 -9 -3 -15 -8 -13 -12 2 -4 -6 -8 -17 -8 -80 -4 -115 -24 -161
-89 -13 -20 -24 -25 -40 -21 -25 6 -60 -32 -72 -78 -3 -14 -9 -26 -13 -26 -11
0 -35 52 -32 69 5 28 -23 3 -31 -27 -5 -18 -24 -49 -44 -69 -19 -19 -38 -48
-41 -64 -3 -17 -10 -26 -18 -23 -16 7 -29 -26 -15 -40 5 -5 10 -15 10 -21 0
-5 -5 -2 -11 7 -5 10 -16 15 -24 12 -16 -6 -21 11 -6 20 4 3 6 17 3 31 -3 20
-7 23 -18 14 -15 -12 -38 -3 -29 12 4 5 -1 9 -9 9 -8 0 -23 10 -33 23 -22 27
-99 38 -89 12 12 -31 -10 -13 -28 23 -10 20 -22 45 -27 54 -5 10 -9 25 -9 33
0 8 -4 15 -9 15 -5 0 -12 18 -16 39 -4 22 -13 45 -21 52 -8 6 -14 17 -14 24 0
7 -7 15 -15 19 -8 3 -15 14 -15 25 0 11 -5 23 -11 27 -6 3 -9 14 -6 24 3 13 0
16 -13 13 -13 -3 -20 2 -24 19 -19 69 -30 104 -37 113 -13 18 -39 117 -33 127
3 5 -3 39 -14 76 -21 71 -35 138 -38 187 -6 117 -6 143 1 164 4 13 8 40 10 60
2 20 6 52 9 71 3 19 5 68 6 108 0 40 5 82 10 93 8 14 7 19 -2 19 -10 0 -10 2
-1 8 6 4 11 21 11 37 0 17 3 49 7 73 6 36 5 41 -9 36 -10 -4 -16 -1 -16 9 0 8
7 18 16 21 8 3 13 10 9 15 -3 6 3 14 12 20 11 7 14 14 8 18 -16 13 -17 41 -1
65 14 21 24 66 29 123 1 11 6 26 11 34 6 10 6 16 -1 18 -7 3 -8 16 -1 41 5 20
10 43 11 50 2 7 9 18 15 24 14 14 16 42 3 34 -10 -7 -22 52 -19 102 0 17 5 32
10 32 4 0 8 11 8 25 0 18 -4 23 -15 19 -9 -4 -15 0 -15 9 0 8 4 17 9 19 6 2
12 21 15 43 2 22 10 54 17 70 7 17 14 41 16 55 2 14 8 27 14 28 5 2 9 12 9 21
0 10 3 21 7 24 6 7 13 42 16 80 1 9 4 17 8 17 4 0 20 33 35 73 16 39 31 74 34
77 3 3 11 23 19 44 14 40 99 172 139 215 12 13 22 30 22 38 0 8 5 11 10 8 6
-3 10 -2 10 3 0 20 214 222 235 222 4 0 25 13 48 28 74 50 185 94 267 107 14
2 39 6 55 8 17 3 52 1 78 -5 35 -7 52 -7 62 2 17 14 85 5 85 -10 0 -16 15 -12
40 10 15 13 27 17 34 11 7 -6 18 -4 30 5 29 21 56 18 56 -6 0 -36 58 -18 73
23 12 33 54 19 48 -17 -1 -5 5 -6 13 -3 10 4 13 1 9 -9 -6 -15 12 -20 22 -4 3
5 12 7 20 3 8 -3 15 -1 15 4 0 5 30 7 68 6 112 -6 144 -4 136 8 -3 5 0 9 6 9
6 0 8 4 5 10 -3 5 1 22 9 38 15 30 41 44 86 46 15 1 24 6 22 15 -1 7 2 19 8
26 7 9 6 16 -4 25 -19 15 -37 4 -29 -17 5 -13 2 -15 -11 -10 -10 4 -22 7 -27
7 -5 0 -9 4 -9 10 0 5 7 7 15 4 8 -4 15 -1 15 5 0 6 -7 11 -15 11 -9 0 -12 6
-9 15 5 12 -2 15 -28 15 -19 0 -39 5 -46 12 -9 9 -12 9 -12 0 0 -7 -14 -11
-35 -10 -23 1 -31 4 -23 10 18 11 -7 27 -33 21 -10 -3 -19 -1 -19 4 0 8 -59
10 -85 3 -5 -1 -13 -2 -17 -1 -5 0 -8 -3 -8 -9 0 -16 -17 -12 -24 6 -3 8 -2
12 4 9 5 -3 18 -1 27 4 34 20 -39 12 -86 -9 -54 -25 -55 -25 -70 4 -12 22 -45
29 -83 17z m422 -152 c0 -5 -11 -9 -25 -9 -28 0 -34 16 -7 23 20 4 32 -1 32
-14z m-120 -105 c0 -9 -5 -14 -12 -12 -18 6 -21 28 -4 28 9 0 16 -7 16 -16z
m-1640 -954 c0 -5 -4 -10 -10 -10 -5 0 -10 5 -10 10 0 6 5 10 10 10 6 0 10 -4
10 -10z m-106 -371 c-28 -31 -36 -22 -12 16 16 24 24 30 26 19 2 -9 -4 -24
-14 -35z m1951 -1988 c3 -5 1 -12 -5 -16 -5 -3 -10 1 -10 9 0 18 6 21 15 7z
m65 -40 c0 -17 -12 -41 -21 -41 -10 0 -12 33 -2 43 9 10 23 9 23 -2z m190 -21
c0 -5 -2 -10 -4 -10 -3 0 -8 5 -11 10 -3 6 -1 10 4 10 6 0 11 -4 11 -10z
m-792 -41 c38 6 155 1 167 -7 5 -4 26 -8 45 -9 64 -5 155 -12 190 -17 19 -2
41 1 48 6 8 8 12 6 12 -4 0 -16 50 -18 82 -3 13 5 20 1 28 -19 9 -24 22 -30
58 -29 6 1 12 -2 12 -6 0 -4 -6 -13 -12 -20 -11 -11 -10 -12 2 -6 13 7 13 6 2
-7 -7 -8 -33 -18 -58 -21 -50 -5 -93 -35 -72 -49 18 -11 71 -10 103 2 22 8 30
6 51 -17 13 -14 24 -22 24 -17 0 5 7 -1 15 -13 9 -12 14 -28 13 -35 -2 -8 6
-12 23 -11 20 1 32 -8 53 -40 29 -45 19 -64 -15 -28 -11 12 -21 21 -23 21 -1
0 -2 -41 0 -91 2 -77 0 -89 -12 -78 -11 9 -14 8 -14 -5 0 -9 4 -16 10 -16 5 0
7 -7 4 -15 -4 -8 -10 -13 -14 -10 -14 9 -23 -35 -10 -50 8 -10 8 -15 0 -20 -6
-4 -15 -18 -21 -32 -7 -18 -14 -23 -29 -18 -15 5 -20 2 -20 -10 0 -11 -5 -15
-15 -11 -9 3 -15 0 -15 -7 0 -7 -13 -26 -29 -41 -26 -25 -28 -32 -20 -59 5
-18 9 -33 9 -34 0 -6 -80 -53 -90 -53 -15 0 -12 16 6 34 8 9 20 13 26 10 6 -4
8 1 6 11 -4 25 -28 31 -29 8 -1 -16 -2 -16 -6 0 -2 9 -8 17 -13 17 -5 0 -14
-8 -20 -17 -10 -15 -10 -14 -6 8 3 15 -3 52 -14 84 -11 32 -17 68 -14 81 5 18
2 24 -9 24 -9 0 -19 9 -22 20 -4 14 -12 19 -23 16 -22 -7 -41 5 -56 35 -7 14
-19 23 -29 21 -10 -2 -17 4 -17 13 0 19 -16 20 -23 1 -7 -18 -55 -16 -66 2 -7
11 -9 11 -14 -2 -8 -20 -34 -21 -54 -1 -8 8 -19 13 -24 10 -5 -4 -9 -1 -9 5 0
6 -5 8 -10 5 -6 -4 -7 -11 -4 -17 4 -6 -2 -5 -15 1 -12 7 -25 9 -30 6 -5 -3
-11 0 -13 6 -2 6 -15 1 -31 -11 -15 -12 -27 -18 -26 -13 4 21 -2 44 -10 39 -5
-4 -12 0 -15 6 -3 10 -9 8 -19 -5 -12 -15 -16 -15 -20 -3 -3 8 -18 21 -34 28
-15 8 -27 20 -25 27 1 7 -2 10 -8 6 -6 -4 -18 -1 -26 6 -12 10 -12 14 -2 21 8
5 -3 6 -24 2 -30 -4 -38 -2 -38 10 0 9 -5 16 -11 16 -6 0 -9 6 -6 14 6 15 -39
20 -49 5 -3 -5 2 -9 10 -9 9 0 13 -6 10 -14 -3 -7 2 -21 11 -29 13 -13 14 -24
5 -63 -6 -26 -7 -50 -3 -53 14 -11 38 -45 27 -38 -16 10 -25 -32 -13 -56 8
-15 7 -23 -4 -34 -18 -19 -39 -9 -30 14 5 14 1 15 -25 10 -35 -7 -36 -6 -23
41 7 24 7 32 -4 32 -12 0 -12 8 -6 77 1 7 7 10 15 7 18 -7 59 33 50 48 -5 7
-11 6 -20 -6 -11 -16 -13 -15 -28 6 -20 28 -20 38 0 38 28 0 9 22 -31 35 -21
8 -43 13 -48 12 -5 -1 -12 4 -14 11 -7 18 42 15 61 -3 14 -14 16 -13 22 10 3
14 4 32 0 40 -5 13 -9 13 -25 3 -27 -16 -40 -2 -15 17 10 8 14 15 9 15 -6 0
-16 -5 -23 -12 -17 -17 -27 -1 -12 18 9 9 23 14 38 11 19 -4 23 -1 19 14 -4
16 1 19 38 19 24 0 47 -5 50 -10 4 -6 11 -8 16 -4 5 3 15 1 22 -4 14 -11 110
-25 177 -26 102 -1 27 72 -87 83 -53 6 -69 12 -81 29 -9 14 -25 22 -42 22 -14
0 -29 3 -33 6 -12 12 6 34 28 34 12 0 35 10 51 23 23 18 44 23 109 25 44 2 84
8 90 13 5 5 16 7 25 3 8 -3 21 -6 28 -5z m612 -20 c0 -15 -4 -19 -16 -15 -9 3
-18 6 -20 6 -2 0 -4 7 -4 15 0 8 9 15 20 15 14 0 20 -7 20 -21z m-1350 -225
c0 -8 -4 -12 -10 -9 -5 3 -10 10 -10 16 0 5 5 9 10 9 6 0 10 -7 10 -16z m330
-164 c0 -11 -7 -20 -15 -20 -15 0 -21 21 -8 33 12 13 23 7 23 -13z m1318 -32
c1 -8 -4 -27 -11 -41 -14 -28 -14 -28 -21 -5 -11 43 -7 66 12 64 9 -2 18 -10
20 -18z m-1308 -8 c0 -5 -7 -10 -16 -10 -8 0 -12 5 -9 10 3 6 10 10 16 10 5 0
9 -4 9 -10z m1316 -78 c-11 -10 -15 4 -8 28 l7 25 3 -23 c2 -13 1 -26 -2 -30z
m304 -4 c0 -5 -9 -12 -20 -15 -11 -3 -20 -9 -20 -14 0 -5 -7 -9 -15 -9 -19 0
-19 6 2 34 17 22 53 25 53 4z m-10 -79 c0 8 3 11 7 7 11 -11 12 -35 2 -42 -5
-3 -6 -16 -3 -30 4 -14 2 -24 -5 -24 -6 0 -11 5 -11 11 0 5 -5 7 -12 3 -6 -4
-8 -3 -5 3 4 6 2 25 -3 43 -11 40 -3 58 16 33 10 -13 13 -14 14 -4z m-815 -66
c-5 -10 -7 -25 -6 -33 1 -8 -6 -2 -15 13 -12 23 -13 31 -3 43 16 19 34 2 24
-23z m-415 -79 c0 -8 -4 -12 -10 -9 -5 3 -10 13 -10 21 0 8 5 12 10 9 6 -3 10
-13 10 -21z m415 16 c3 -5 1 -10 -4 -10 -6 0 -11 5 -11 10 0 6 2 10 4 10 3 0
8 -4 11 -10z m455 -36 c0 -8 -7 -14 -15 -14 -10 0 -15 10 -15 26 0 22 2 25 15
14 8 -7 15 -19 15 -26z m110 -1 c-11 -17 -11 -17 -6 0 3 10 6 24 7 30 0 9 2 9
5 0 3 -7 0 -20 -6 -30z m-203 -15 c-3 -8 -6 -5 -6 6 -1 11 2 17 5 13 3 -3 4
-12 1 -19z m329 -25 c-6 -43 -17 -73 -26 -73 -5 0 -10 -10 -13 -22 -3 -21 -4
-21 -12 -4 -5 11 -3 21 4 26 7 4 15 26 18 48 3 23 9 39 14 36 5 -3 9 0 9 5 0
6 2 11 5 11 3 0 3 -12 1 -27z m-279 -141 c-3 -14 -5 -14 -11 3 -4 11 -12 30
-18 41 -6 12 -7 32 -3 45 7 21 9 19 22 -24 8 -27 12 -56 10 -65z m223 8 c0 -5
-4 -10 -10 -10 -5 0 -10 -9 -10 -20 0 -11 -6 -20 -14 -20 -26 0 -28 20 -4 40
26 22 38 25 38 10z m-656 -51 c5 -5 4 -14 -4 -24 -17 -21 -30 -19 -30 5 0 11
-4 20 -10 20 -5 0 -10 5 -10 11 0 11 38 3 54 -12z m-63 -50 l-10 -24 0 26 c-1
14 2 29 6 33 12 12 14 -9 4 -35z m482 -14 c-3 -8 -9 -15 -14 -15 -10 0 -12 24
-3 33 11 11 24 -3 17 -18z m-206 -27 c-3 -8 -6 -5 -6 6 -1 11 2 17 5 13 3 -3
4 -12 1 -19z m63 -68 c0 -5 -2 -10 -4 -10 -3 0 -8 5 -11 10 -3 6 -1 10 4 10 6
0 11 -4 11 -10z m136 -78 c-12 -11 -18 7 -10 30 l8 23 4 -23 c2 -13 1 -26 -2
-30z m64 32 c0 -8 -5 -12 -10 -9 -6 4 -8 11 -5 16 9 14 15 11 15 -7z m-220
-19 c0 -8 -2 -15 -4 -15 -2 0 -6 7 -10 15 -3 8 -1 15 4 15 6 0 10 -7 10 -15z
m90 -89 c0 -11 -19 -15 -25 -6 -3 5 1 10 9 10 9 0 16 -2 16 -4z"/>
<path d="M4408 3773 c7 -3 16 -2 19 1 4 3 -2 6 -13 5 -11 0 -14 -3 -6 -6z"/>
<path d="M4300 3754 c0 -16 28 -18 50 -4 8 5 13 10 10 11 -47 7 -60 6 -60 -7z"/>
<path d="M3970 3730 c0 -5 5 -10 10 -10 6 0 10 5 10 10 0 6 -4 10 -10 10 -5 0
-10 -4 -10 -10z"/>
<path d="M3836 3524 c-5 -14 -4 -15 9 -4 17 14 19 20 6 20 -5 0 -12 -7 -15
-16z"/>
<path d="M4736 7470 c-18 -6 -17 -10 17 -42 20 -20 37 -40 37 -45 1 -4 11 -29
23 -56 20 -42 31 -52 101 -87 44 -22 81 -38 83 -36 3 2 17 -8 31 -23 42 -42
83 -71 93 -65 5 3 9 -1 9 -9 0 -8 10 -21 23 -30 29 -19 127 -116 127 -125 0
-5 15 -23 33 -43 17 -19 50 -60 71 -92 22 -31 42 -57 46 -57 4 0 7 -6 7 -12 0
-18 43 -88 54 -88 5 0 9 -9 9 -19 0 -10 7 -22 16 -25 9 -3 14 -13 10 -21 -7
-18 19 -70 29 -56 3 6 11 11 17 11 6 0 3 -9 -7 -20 -18 -19 -18 -21 1 -59 10
-22 23 -37 28 -34 5 4 6 1 2 -6 -5 -7 0 -21 10 -32 20 -22 39 -25 30 -4 -3 8
2 21 10 30 13 12 13 19 4 30 -7 8 -9 23 -5 36 5 14 4 19 -4 15 -7 -4 -12 1
-12 13 -1 12 -2 27 -3 34 -1 6 -4 14 -8 17 -4 3 -9 18 -12 34 -3 16 -11 36
-18 45 -8 9 -15 29 -17 45 -3 30 -4 33 -47 81 -22 25 -25 37 -21 72 2 24 1 40
-4 37 -5 -2 -26 4 -47 15 -33 17 -38 24 -39 56 -1 25 -8 41 -22 51 -12 9 -21
22 -21 30 0 8 -6 14 -12 15 -7 1 -22 2 -33 3 -13 1 -21 10 -25 30 -5 28 -38
57 -82 72 -10 4 -18 15 -18 25 0 11 -9 21 -24 25 -30 7 -58 36 -54 55 2 9 -7
14 -27 14 -38 1 -58 13 -51 31 4 10 -3 14 -24 14 -16 0 -36 7 -45 16 -9 10
-28 18 -42 20 -31 3 -65 38 -57 57 8 22 -14 31 -32 13 -20 -20 -38 -21 -30 -1
3 9 0 15 -9 15 -8 0 -22 8 -32 19 -12 12 -24 16 -37 11z m214 -140 c0 -5 -4
-10 -10 -10 -5 0 -10 5 -10 10 0 6 5 10 10 10 6 0 10 -4 10 -10z m5 -60 c3 -5
1 -10 -4 -10 -6 0 -11 5 -11 10 0 6 2 10 4 10 3 0 8 -4 11 -10z"/>
<path d="M4660 7461 c0 -12 26 -32 33 -25 9 10 -4 34 -19 34 -8 0 -14 -4 -14
-9z"/>
<path d="M4570 7401 c0 -5 -8 -7 -19 -4 -12 3 -20 -2 -23 -14 -6 -24 16 -58
32 -48 6 4 19 0 29 -9 17 -15 51 -16 124 -1 16 3 26 2 23 -4 -3 -5 8 -11 24
-13 21 -3 27 -1 20 7 -5 6 -11 23 -14 39 -3 15 -13 34 -23 41 -23 17 -28 12
-13 -14 9 -19 8 -21 -15 -21 -18 0 -25 5 -25 19 0 29 -63 45 -73 19 -3 -10 -9
-10 -26 0 -11 7 -21 8 -21 3z"/>
<path d="M2750 6705 c-7 -9 -10 -18 -7 -21 3 -3 10 4 17 15 13 25 8 27 -10 6z"/>
<path d="M2705 6640 c-3 -5 -1 -10 4 -10 6 0 11 5 11 10 0 6 -2 10 -4 10 -3 0
-8 -4 -11 -10z"/>
<path d="M5624 6294 c3 -9 6 -18 6 -20 0 -2 4 -4 9 -4 5 0 7 9 4 20 -3 11 -10
20 -15 20 -6 0 -7 -7 -4 -16z"/>
<path d="M3354 5955 c3 -9 0 -15 -9 -15 -18 0 -20 -20 -2 -21 11 0 66 -7 84
-10 22 -4 32 3 26 17 -3 8 -12 13 -19 10 -7 -3 -16 0 -20 5 -3 6 -15 9 -25 6
-12 -3 -19 0 -19 9 0 8 -5 14 -11 14 -6 0 -9 -7 -5 -15z"/>
<path d="M3300 5930 c0 -5 5 -10 10 -10 6 0 10 5 10 10 0 6 -4 10 -10 10 -5 0
-10 -4 -10 -10z"/>
<path d="M3471 5541 c-8 -5 -27 -7 -43 -4 -16 2 -35 -1 -43 -7 -7 -6 -17 -10
-21 -8 -5 1 -33 -10 -61 -25 -29 -15 -53 -24 -53 -20 0 5 -11 -4 -24 -19 -13
-16 -27 -28 -31 -28 -10 0 -44 -43 -45 -57 0 -7 7 -13 15 -13 8 0 15 5 15 10
0 6 6 10 14 10 8 0 21 8 28 18 21 28 78 72 94 72 8 0 14 -9 14 -21 0 -23 32
-72 70 -107 21 -19 34 -22 73 -19 39 3 54 10 79 37 16 18 34 44 39 57 13 34
11 86 -3 105 -15 18 -97 31 -117 19z m89 -46 c0 -8 -4 -15 -9 -15 -13 0 -22
16 -14 24 11 11 23 6 23 -9z m-68 -77 c-15 -15 -26 -4 -18 18 5 13 9 15 18 6
9 -9 9 -15 0 -24z"/>
<path d="M4806 5417 c-3 -16 -6 -45 -6 -65 0 -44 41 -102 73 -101 12 0 29 -1
37 -2 33 -5 81 1 76 10 -3 5 8 14 24 21 17 7 30 18 30 24 0 6 9 22 20 36 27
35 25 50 -10 57 -17 3 -33 9 -36 14 -2 4 -11 6 -19 2 -8 -3 -15 -1 -15 5 0 10
-55 21 -127 26 -38 2 -42 0 -47 -27z m124 -92 c0 -8 -7 -15 -15 -15 -8 0 -15
7 -15 15 0 8 7 15 15 15 8 0 15 -7 15 -15z"/>
<path d="M3749 5400 c-9 -10 -22 -19 -29 -22 -6 -2 -10 -14 -8 -28 3 -23 4
-23 20 -6 10 9 25 16 35 14 10 -2 22 7 29 20 8 16 13 19 16 10 3 -7 9 -10 13
-6 12 12 -11 33 -37 35 -13 0 -30 -7 -39 -17z"/>
<path d="M3945 4460 c-3 -6 1 -17 9 -26 9 -8 16 -20 16 -25 0 -5 9 -4 19 3 15
9 17 15 9 26 -18 22 -46 33 -53 22z"/>
<path d="M4362 4438 c-15 -15 -15 -28 -1 -28 5 0 7 5 3 12 -5 7 -2 9 9 5 11
-4 14 -2 10 9 -6 17 -6 17 -21 2z"/>
<path d="M5580 4370 c0 -5 5 -10 10 -10 6 0 10 5 10 10 0 6 -4 10 -10 10 -5 0
-10 -4 -10 -10z"/>
<path d="M5581 4334 c0 -11 3 -14 6 -6 3 7 2 16 -1 19 -3 4 -6 -2 -5 -13z"/>
<path d="M4461 4254 c0 -11 3 -14 6 -6 3 7 2 16 -1 19 -3 4 -6 -2 -5 -13z"/>
<path d="M4506 4237 c3 -10 9 -15 12 -12 3 3 0 11 -7 18 -10 9 -11 8 -5 -6z"/>
<path d="M5366 3764 c-4 -14 -4 -35 0 -46 4 -14 2 -18 -5 -14 -6 4 -14 -1 -18
-11 -4 -10 -13 -24 -20 -31 -7 -7 -13 -24 -13 -38 0 -13 -5 -24 -12 -24 -6 0
-3 -9 8 -21 15 -16 16 -22 5 -28 -15 -9 -7 -31 11 -31 9 0 48 37 48 46 0 2 -6
1 -14 -2 -7 -3 -21 2 -29 11 -14 13 -14 20 -4 38 16 28 37 51 37 40 0 -4 7 1
15 11 8 11 15 37 15 58 0 21 5 38 10 38 6 0 10 7 10 15 0 26 -37 17 -44 -11z"/>
<path d="M5000 3711 c0 -12 5 -21 10 -21 6 0 10 6 10 14 0 8 -4 18 -10 21 -5
3 -10 -3 -10 -14z"/>
<path d="M5229 3678 c-6 -11 -7 -32 -4 -49 5 -21 2 -31 -9 -35 -30 -11 -16
-21 22 -15 35 6 37 8 38 46 1 22 3 46 5 54 6 22 -40 21 -52 -1z"/>
<path d="M5160 3631 c0 -17 5 -33 10 -36 6 -4 10 8 10 29 0 20 -4 36 -10 36
-5 0 -10 -13 -10 -29z"/>
<path d="M5410 3601 c0 -5 -3 -17 -6 -25 -5 -12 -2 -15 10 -10 17 7 22 44 6
44 -5 0 -10 -4 -10 -9z"/>
<path d="M5230 3554 c0 -8 5 -12 10 -9 6 4 8 11 5 16 -9 14 -15 11 -15 -7z"/>
<path d="M5193 2962 c-7 -29 -8 -103 -2 -165 2 -30 6 -36 20 -32 10 3 20 1 24
-5 3 -6 -3 -10 -14 -10 -12 0 -21 -7 -21 -15 0 -11 4 -13 18 -6 28 15 102 30
107 21 3 -4 30 -7 61 -5 64 4 116 -12 178 -55 25 -16 51 -30 60 -30 8 0 18 -4
21 -10 3 -5 12 -10 20 -10 8 0 37 -14 66 -31 28 -16 58 -28 65 -25 7 3 39 0
71 -5 32 -6 67 -12 78 -12 11 -1 25 -7 30 -13 6 -6 37 -17 70 -23 33 -7 69
-17 80 -22 11 -5 56 -22 100 -38 44 -16 98 -39 120 -52 22 -12 58 -33 80 -46
22 -12 50 -27 63 -33 85 -37 112 -52 112 -59 0 -5 17 -16 38 -24 113 -47 332
-209 332 -245 0 -24 39 -79 60 -85 17 -4 18 -3 8 16 -11 21 -10 21 8 7 63 -49
81 -77 44 -67 -26 7 -26 -8 0 -26 11 -8 17 -17 13 -20 -3 -4 0 -7 8 -7 8 0 20
5 27 12 9 9 15 9 24 0 9 -9 9 -12 -2 -12 -7 0 -11 -2 -8 -5 8 -9 58 14 90 40
16 14 51 32 79 42 42 15 51 23 59 53 6 19 10 42 10 51 0 9 7 22 15 29 8 7 15
16 15 21 0 5 15 23 33 39 31 28 31 29 8 30 -16 0 -21 -4 -18 -14 6 -16 -19
-30 -35 -20 -5 3 -15 -2 -22 -12 -9 -12 -15 -14 -20 -6 -4 7 -4 12 -1 12 4 0
-3 14 -15 30 -12 17 -27 30 -35 30 -7 0 -20 11 -29 25 -9 14 -23 25 -31 25 -7
0 -16 9 -20 19 -4 15 -17 20 -58 23 -29 2 -60 -1 -69 -6 -21 -13 -36 0 -20 16
16 16 -13 48 -42 47 -20 0 -20 -1 2 -9 32 -13 27 -31 -8 -28 -16 1 -30 5 -30
9 0 9 -65 79 -73 79 -4 0 -4 -7 0 -16 5 -14 -11 -33 -27 -34 -3 0 -11 14 -19
30 -7 17 -18 29 -24 27 -7 -2 -20 6 -29 17 -12 14 -16 16 -12 5 3 -10 -1 -19
-10 -22 -12 -5 -14 0 -9 23 3 19 1 30 -6 30 -6 0 -11 -9 -11 -20 0 -21 -15
-27 -25 -10 -3 6 -15 10 -25 10 -25 0 -35 17 -19 36 11 13 9 14 -17 9 -16 -4
-41 -11 -56 -17 -21 -8 -30 -6 -47 9 -12 10 -30 26 -41 36 -22 18 -40 22 -40
8 0 -13 -83 -1 -95 13 -14 17 -72 39 -83 32 -6 -3 -31 3 -57 14 -25 11 -49 19
-53 18 -4 -1 -15 2 -24 6 -10 4 -23 6 -29 4 -7 -2 -26 8 -43 24 -21 20 -40 28
-66 27 -75 0 -84 2 -106 22 -12 12 -27 18 -33 14 -6 -3 -11 -1 -11 5 0 13 -48
33 -77 32 -14 -1 -24 6 -28 18 -4 11 -11 18 -16 15 -5 -4 -15 -3 -21 2 -7 4
-17 8 -23 8 -19 2 -50 19 -86 47 -20 15 -40 28 -43 28 -4 0 -17 9 -29 21 -12
11 -30 18 -39 16 -10 -3 -22 1 -29 9 -6 8 -18 14 -25 14 -8 0 -45 16 -83 35
-38 19 -71 32 -74 29 -3 -4 -37 10 -76 29 l-71 36 -7 -27z"/>
<path d="M2463 2904 c-3 -8 -2 -19 3 -24 5 -5 10 1 10 16 2 27 -4 31 -13 8z"/>
<path d="M5213 2626 c-3 -35 -4 -132 -2 -142 1 -5 1 -16 0 -24 -1 -13 -3 -13
-12 0 -9 13 -10 12 -5 -3 5 -16 -37 -114 -55 -127 -3 -3 -9 -15 -13 -28 -4
-12 -12 -19 -18 -16 -7 4 -8 2 -4 -4 9 -15 46 -15 46 0 0 6 11 26 26 45 14 18
22 33 18 33 -3 0 1 11 10 25 9 13 16 33 16 45 0 11 4 20 9 20 5 0 23 27 39 60
25 47 28 60 16 60 -14 0 -44 23 -44 34 0 2 7 6 15 8 10 2 6 8 -13 19 -26 15
-28 15 -29 -5z"/>
<path d="M5829 2441 c11 -14 34 -38 52 -51 37 -28 149 -132 254 -236 82 -80
205 -159 235 -151 10 3 18 0 17 -5 -3 -14 54 -46 71 -40 6 2 12 0 12 -5 0 -5
9 -9 21 -10 14 -1 19 3 15 13 -3 8 -1 14 4 14 14 0 41 -31 35 -40 -3 -5 -1
-11 4 -14 5 -4 12 -2 16 4 12 19 27 10 22 -12 -6 -20 -5 -20 20 4 24 25 25 28
9 43 -21 22 -20 28 3 16 25 -14 33 -48 15 -66 -17 -17 -9 -22 32 -23 17 0 46
-9 65 -20 21 -12 49 -18 74 -17 22 2 50 -3 62 -11 33 -21 46 -18 39 10 -5 20
-1 24 24 30 31 6 42 26 15 26 -8 0 -15 -4 -15 -10 0 -5 -20 3 -45 19 -25 16
-61 32 -80 35 -21 4 -35 13 -35 21 0 8 -4 15 -9 15 -21 0 -41 -13 -41 -27 0
-13 -2 -13 -17 -2 -9 8 -25 13 -35 11 -14 -3 -19 2 -17 15 3 23 -11 56 -28 66
-7 4 -13 16 -13 25 0 15 -2 15 -10 2 -8 -13 -10 -13 -10 2 0 18 -24 35 -77 54
-24 9 -30 8 -26 -1 6 -18 -14 -28 -33 -17 -11 6 -13 11 -5 16 19 12 12 36 -10
36 -23 0 -59 34 -59 57 0 7 -7 13 -15 13 -9 0 -12 -6 -8 -17 5 -14 0 -12 -20
6 -15 14 -27 32 -27 41 0 17 -24 27 -94 37 -16 2 -35 10 -42 17 -7 7 -27 19
-44 26 -27 11 -36 11 -54 0 -19 -12 -20 -12 -7 3 12 15 11 17 -10 17 -13 0
-33 7 -43 15 -10 8 -23 12 -28 9 -8 -5 -38 19 -38 30 0 3 -9 15 -19 25 -18 18
-20 18 -26 3 -5 -12 -9 -13 -12 -4 -3 6 -9 10 -14 6 -5 -3 -23 1 -39 10 l-30
15 19 -28z m451 -181 c0 -5 -5 -10 -11 -10 -5 0 -7 5 -4 10 3 6 8 10 11 10 2
0 4 -4 4 -10z m17 -26 c-3 -3 -12 -4 -19 -1 -8 3 -5 6 6 6 11 1 17 -2 13 -5z
m347 -232 c2 -4 -4 -9 -15 -9 -11 -1 -17 2 -14 8 7 11 22 12 29 1z"/>
<path d="M5107 2253 c-4 -3 -7 -13 -7 -20 0 -12 3 -12 15 1 8 8 15 17 15 20 0
8 -15 7 -23 -1z"/>
<path d="M5072 2200 c-7 -11 -8 -20 -3 -20 9 0 24 30 18 36 -1 2 -8 -6 -15
-16z"/>
<path d="M5010 2125 c-7 -9 -11 -17 -9 -20 3 -2 10 5 17 15 14 24 10 26 -8 5z"/>
<path d="M4921 2011 c-11 -11 -22 -16 -26 -13 -4 4 -6 3 -4 -3 1 -5 -1 -18 -6
-29 -12 -28 -125 -136 -144 -137 -10 0 -12 -2 -3 -6 6 -2 12 -9 12 -15 0 -6
-6 -8 -13 -5 -8 3 -14 -4 -15 -19 -1 -15 4 -24 13 -24 8 0 15 5 15 11 0 5 4 8
9 5 19 -12 64 25 111 92 28 39 50 78 50 87 0 9 9 25 20 37 35 38 17 55 -19 19z"/>
<path d="M6856 1815 c4 -8 10 -15 15 -15 4 0 6 7 3 15 -4 8 -10 15 -15 15 -4
0 -6 -7 -3 -15z"/>
<path d="M6710 1800 c0 -5 5 -10 11 -10 5 0 7 5 4 10 -3 6 -8 10 -11 10 -2 0
-4 -4 -4 -10z"/>
<path d="M27 1772 c-9 -2 -15 -8 -12 -13 4 -5 1 -9 -4 -9 -7 0 -11 -53 -11
-155 0 -145 1 -155 18 -146 48 26 166 8 209 -31 l22 -21 45 22 c25 11 54 21
65 21 10 0 23 6 29 13 6 7 34 19 62 27 27 7 50 17 50 21 0 9 34 19 85 26 22 3
44 9 49 14 6 5 18 9 28 9 10 0 18 5 18 10 0 6 11 10 25 10 23 0 127 24 165 38
8 3 18 6 23 6 20 3 15 11 -55 87 -10 10 -18 27 -18 38 0 10 -6 23 -12 28 -19
15 -143 10 -163 -7 -14 -11 -16 -11 -13 1 2 8 -7 15 -19 17 -16 2 -23 -2 -23
-14 0 -16 -1 -16 -19 0 -17 15 -32 17 -103 12 -46 -4 -90 -6 -98 -5 -46 3
-328 4 -343 1z"/>
<path d="M4688 1773 c7 -3 16 -2 19 1 4 3 -2 6 -13 5 -11 0 -14 -3 -6 -6z"/>
<path d="M2866 1652 c-4 -6 2 -19 12 -29 10 -10 29 -53 42 -95 20 -66 28 -79
57 -95 35 -19 41 -28 21 -36 -8 -3 -6 -6 5 -6 9 -1 17 4 17 10 0 8 4 8 13 1
15 -13 83 -19 93 -9 4 4 13 2 20 -3 6 -6 27 -13 45 -15 19 -2 35 -9 37 -15 5
-15 32 8 32 26 0 8 7 14 15 14 42 0 -7 31 -70 46 -16 3 -55 18 -85 32 -85 39
-115 72 -67 72 12 0 41 9 62 20 38 19 41 19 52 3 7 -9 13 -22 13 -29 0 -15 44
-12 63 4 8 7 37 9 75 5 53 -4 62 -3 62 11 0 15 -23 21 -70 18 -8 0 -42 10 -75
23 -43 17 -89 25 -165 29 -58 3 -116 8 -130 12 -14 3 -35 8 -46 11 -12 3 -25
0 -28 -5z m134 -92 c0 -5 -4 -10 -10 -10 -5 0 -10 5 -10 10 0 6 5 10 10 10 6
0 10 -4 10 -10z"/>
<path d="M7408 1619 c-3 -10 -151 -64 -213 -79 -75 -17 -507 -10 -610 10 -27
5 -102 12 -165 15 -63 2 -135 7 -159 10 -24 4 -99 8 -165 10 -67 2 -134 5
-151 6 -16 1 -47 -2 -67 -6 -26 -5 -38 -4 -38 4 0 9 -6 9 -22 0 -13 -7 -24
-12 -25 -11 -2 1 -14 2 -28 2 -23 0 -20 -5 35 -61 33 -33 60 -65 60 -69 0 -5
8 -11 18 -14 10 -4 24 -22 31 -41 7 -19 17 -35 22 -35 6 0 9 -10 7 -22 -3 -22
34 -64 72 -82 44 -21 64 -39 110 -99 28 -37 56 -66 63 -64 7 1 11 -8 9 -23 -2
-16 7 -35 23 -52 31 -34 36 -35 32 -5 -2 12 -2 16 0 10 9 -27 25 -12 20 17 -5
22 -3 28 8 24 29 -12 36 7 16 42 -15 25 -17 36 -8 41 25 16 39 58 28 86 -7 17
-7 28 -1 32 16 10 11 57 -7 77 -15 17 -15 18 0 18 12 0 17 9 17 30 0 34 22 49
45 30 12 -10 15 -9 15 9 0 14 -6 20 -17 18 -10 -1 -18 3 -19 8 0 6 7 9 17 7
11 -2 30 9 45 25 23 25 32 28 77 24 31 -2 81 -17 125 -37 40 -19 82 -34 92
-34 10 0 22 -5 25 -10 6 -10 50 -7 99 7 13 4 16 1 11 -7 -6 -9 -4 -11 5 -5 26
16 91 6 111 -17 15 -19 18 -20 19 -7 0 21 30 33 44 19 15 -15 23 -12 29 10 3
14 14 20 34 22 37 2 43 3 73 15 14 6 48 14 75 17 28 4 57 11 65 16 10 6 20 4
32 -6 15 -15 20 -14 53 12 20 15 43 43 53 63 9 20 17 39 19 42 2 4 -5 9 -16
12 -11 3 -21 1 -23 -4z m-1101 -314 c-4 -8 -11 -15 -17 -15 -14 0 -13 27 3 33
16 6 21 1 14 -18z m-37 -205 c0 -5 -5 -10 -11 -10 -5 0 -7 5 -4 10 3 6 8 10
11 10 2 0 4 -4 4 -10z"/>
<path d="M5197 1613 c-4 -3 -15 -7 -25 -8 -26 -3 -52 -16 -52 -27 0 -5 4 -7 9
-3 5 3 12 1 16 -5 3 -5 -1 -10 -9 -10 -11 0 -13 -8 -9 -33 5 -31 3 -34 -18
-33 -18 1 -24 -4 -24 -19 0 -16 10 -22 48 -28 26 -5 47 -13 47 -18 0 -5 11 -6
26 -3 18 5 32 0 50 -16 13 -13 27 -20 31 -17 3 4 1 7 -5 7 -7 0 -12 4 -12 8 0
4 15 6 34 4 l34 -4 7 54 c12 81 13 132 3 144 -9 12 -140 19 -151 7z"/>
<path d="M2182 1599 c-24 -3 -87 -5 -140 -4 -53 1 -108 -2 -122 -8 -35 -13
-107 -18 -260 -19 -142 0 -220 -5 -220 -12 0 -6 -5 -5 -12 2 -16 16 -101 15
-167 -3 -49 -13 -56 -13 -66 2 -10 13 -32 17 -114 18 -74 0 -104 4 -110 14 -5
8 -14 10 -20 7 -16 -10 -13 -29 4 -23 15 6 28 -8 30 -33 5 -54 21 -90 57 -130
23 -25 36 -37 29 -28 -11 14 -10 20 2 33 24 23 36 18 32 -14 -3 -25 -1 -29 13
-24 9 3 22 9 27 14 10 7 47 12 73 10 6 -1 12 -8 12 -16 0 -8 5 -15 10 -15 6 0
10 -5 10 -11 0 -7 8 -17 17 -24 16 -12 16 -14 -2 -41 -13 -20 -14 -25 -3 -17
8 7 18 10 21 6 4 -3 7 -1 7 5 0 7 6 12 14 12 8 0 21 8 28 18 7 9 42 42 78 72
36 30 66 58 68 62 2 5 21 5 41 2 23 -4 48 -1 61 6 20 11 25 10 35 -4 7 -9 18
-16 24 -16 7 0 9 -4 6 -10 -10 -16 23 -70 40 -64 8 4 15 1 15 -6 0 -6 -5 -8
-11 -4 -8 5 -10 -3 -7 -25 l5 -32 -24 27 c-13 15 -26 25 -29 21 -8 -8 45 -57
62 -57 8 0 14 5 14 10 0 6 5 10 10 10 15 0 12 -30 -2 -31 -7 -1 0 -4 16 -8 36
-8 45 -28 14 -33 -15 -2 -21 -9 -19 -18 7 -21 4 -80 -4 -113 -5 -19 -3 -33 9
-46 17 -18 13 -33 -7 -25 -7 2 -20 -10 -29 -27 -17 -29 -17 -31 2 -51 27 -29
69 -32 102 -8 20 15 26 16 22 5 -4 -11 0 -15 16 -15 15 0 20 4 17 15 -4 8 -1
17 4 21 6 3 9 14 6 24 -3 11 2 21 10 24 7 3 21 23 29 43 47 115 116 221 160
246 8 4 14 15 14 22 0 8 6 15 13 15 8 0 24 12 38 26 33 36 77 58 92 46 7 -6
33 -13 60 -17 39 -6 54 -15 82 -48 37 -43 43 -57 23 -57 -7 0 0 -12 15 -26 15
-14 25 -29 22 -34 -6 -11 50 -70 65 -70 6 0 10 6 10 14 0 8 14 19 30 25 26 9
30 8 28 -6 -3 -17 14 -29 53 -37 22 -5 25 -11 24 -40 0 -19 3 -33 6 -30 4 2
10 0 14 -6 3 -5 1 -10 -4 -10 -6 0 -11 -5 -11 -12 0 -6 3 -8 6 -5 4 3 15 2 26
-4 11 -6 17 -13 14 -16 -3 -4 4 -11 17 -18 12 -6 21 -18 21 -27 -1 -10 4 -14
11 -11 21 8 24 29 9 58 -14 27 -10 51 5 27 4 -6 7 6 6 28 0 21 -4 42 -7 46 -4
3 -22 0 -42 -7 -42 -15 -59 -4 -31 19 27 22 47 86 32 101 -8 8 -8 11 1 11 8 0
9 7 3 23 -8 20 -5 26 21 41 17 10 27 24 24 31 -3 8 2 19 11 26 13 11 17 10 29
-6 14 -18 14 -18 14 2 0 29 -18 80 -52 148 -40 80 -54 89 -85 56 -18 -20 -19
-20 -93 0 -60 15 -101 19 -215 17 -77 -2 -159 -6 -183 -9z m-1122 -175 c0 -8
-4 -12 -10 -9 -5 3 -10 10 -10 16 0 5 5 9 10 9 6 0 10 -7 10 -16z m1090 -14
c0 -5 -2 -10 -4 -10 -3 0 -8 5 -11 10 -3 6 -1 10 4 10 6 0 11 -4 11 -10z m350
-130 c0 -5 14 -10 30 -10 33 0 38 -11 14 -31 -13 -10 -19 -8 -40 14 -26 28
-29 37 -14 37 6 0 10 -4 10 -10z m90 -64 c0 -3 -4 -8 -10 -11 -5 -3 -10 -1
-10 4 0 6 5 11 10 11 6 0 10 -2 10 -4z m-745 -226 c3 -5 -1 -10 -10 -10 -9 0
-13 5 -10 10 3 6 8 10 10 10 2 0 7 -4 10 -10z"/>
<path d="M5487 1584 c-10 -11 13 -58 40 -82 15 -12 29 -19 32 -15 3 5 13 10
21 12 29 6 35 8 67 21 18 6 30 16 27 21 -3 5 7 9 21 9 14 0 24 4 21 9 -9 14
-55 19 -60 7 -3 -8 -7 -7 -14 2 -6 10 -15 10 -36 2 -15 -5 -25 -6 -22 -1 9 14
-83 28 -97 15z"/>
<path d="M3405 1570 c3 -5 12 -7 20 -3 21 7 19 13 -6 13 -11 0 -18 -4 -14 -10z"/>
<path d="M3135 1560 c-3 -5 1 -10 9 -10 9 0 16 5 16 10 0 6 -4 10 -9 10 -6 0
-13 -4 -16 -10z"/>
<path d="M2960 1422 c6 -13 14 -21 18 -18 3 4 -2 14 -12 24 -18 16 -18 16 -6
-6z"/>
<path d="M1595 1381 c-3 -5 -1 -12 5 -16 5 -3 10 1 10 9 0 18 -6 21 -15 7z"/>
<path d="M3280 1371 c0 -6 4 -13 10 -16 6 -3 7 1 4 9 -7 18 -14 21 -14 7z"/>
<path d="M5065 1270 c4 -6 11 -8 16 -5 14 9 11 15 -7 15 -8 0 -12 -5 -9 -10z"/>
<path d="M2784 1005 c-11 -5 -29 -19 -39 -29 -19 -18 -19 -18 3 -12 12 4 22 3
22 -2 0 -5 9 -12 19 -15 14 -3 20 1 23 17 7 37 -4 54 -28 41z"/>
<path d="M6310 1000 c0 -5 5 -10 10 -10 6 0 10 5 10 10 0 6 -4 10 -10 10 -5 0
-10 -4 -10 -10z"/>
<path d="M1777 896 c-6 -15 1 -26 15 -26 4 0 8 9 8 20 0 23 -15 27 -23 6z"/>
<path d="M215 889 c-10 -15 3 -25 16 -12 7 7 7 13 1 17 -6 3 -14 1 -17 -5z"/>
<path d="M2796 885 c-9 -26 -7 -32 5 -12 6 10 9 21 6 23 -2 3 -7 -2 -11 -11z"/>
<path d="M261 846 c-21 -12 -22 -14 -5 -20 9 -4 20 -2 24 4 3 5 14 -15 24 -45
9 -30 22 -55 28 -55 14 0 32 -24 59 -75 14 -29 27 -41 45 -43 15 -1 24 3 24
13 0 8 -4 15 -10 15 -5 0 -10 6 -10 13 0 14 -49 86 -88 129 -13 15 -30 37 -36
49 -14 28 -25 31 -55 15z"/>
<path d="M430 580 c0 -5 9 -10 21 -10 11 0 17 5 14 10 -3 6 -13 10 -21 10 -8
0 -14 -4 -14 -10z"/>
<path d="M1700 465 c0 -8 2 -15 4 -15 2 0 6 7 10 15 3 8 1 15 -4 15 -6 0 -10
-7 -10 -15z"/>
<path d="M1660 281 c0 -11 -6 -22 -12 -25 -7 -3 -4 -5 7 -3 21 2 36 47 16 47
-6 0 -11 -9 -11 -19z"/>
<path d="M1656 222 c-4 -7 -14 -11 -22 -8 -8 3 -14 -1 -14 -10 0 -8 4 -13 9
-10 5 4 11 2 13 -4 6 -17 30 7 26 26 -3 14 -5 16 -12 6z"/>
<path d="M1595 121 c-3 -6 3 -14 12 -20 11 -6 13 -11 5 -11 -7 0 -10 -5 -6
-11 5 -8 9 -7 15 4 16 27 -10 64 -26 38z"/>
<path d="M1562 71 c-11 -6 -9 -9 5 -13 12 -3 20 0 20 8 0 16 -6 17 -25 5z"/>
<path d="M395 50 c-3 -5 1 -10 10 -10 9 0 13 5 10 10 -3 6 -8 10 -10 10 -2 0
-7 -4 -10 -10z"/>
<path d="M407 23 c-17 -16 -3 -23 51 -23 57 0 57 0 28 15 -30 16 -68 20 -79 8z"/>
<path d="M548 3 c7 -3 16 -2 19 1 4 3 -2 6 -13 5 -11 0 -14 -3 -6 -6z"/>
</g>
</svg>
