<?xml version="1.0" encoding="utf-8"?>
<!-- Generator: Adobe Illustrator 21.1.0, SVG Export Plug-In . SVG Version: 6.00 Build 0)  -->
<svg version="1.1" id="Layer_1" xmlns="http://www.w3.org/2000/svg" xmlns:xlink="http://www.w3.org/1999/xlink" x="0px" y="0px"
	 viewBox="0 0 460 167" style="enable-background:new 0 0 460 167;" xml:space="preserve">
<style type="text/css">
	.st0{fill:#5263EE;}
	.st1{fill:none;stroke:#55E0B5;stroke-width:3;stroke-linecap:round;stroke-linejoin:round;stroke-miterlimit:10;}
	.st2{fill:#FFFFFF;}
	.st3{fill:none;stroke:#FFFFFF;stroke-width:3;stroke-linecap:round;stroke-linejoin:round;stroke-miterlimit:10;}
</style>
<text transform="matrix(1 0 0 1 -382.355 565.6499)"><tspan x="0" y="0" class="st0" style="font-family:'Merriweather-Heavy'; font-size:33px;">Teach</tspan><tspan x="0" y="39.6" class="st0" style="font-family:'Merriweather-Heavy'; font-size:33px;">PartTime</tspan></text>
<text transform="matrix(1 0 0 1 -218.6348 605.6714)" class="st0" style="font-family:'OpenSans'; font-size:33px;">.com</text>
<path class="st1" d="M-414.6,536.1c4.1,1.6,6,6,6,11.3v42.9c0,6.6-3,11.9-9.5,11.9h-83.4c-6.6,0-11.9-5.3-11.9-11.9v-42.9
	c0-6.6,5.3-11.9,11.9-11.9h32"/>
<line class="st1" x1="-511" y1="591.9" x2="-411" y2="591.9"/>
<line class="st1" x1="-461" y1="603.4" x2="-461" y2="611"/>
<line class="st1" x1="-484.8" y1="611.5" x2="-437.2" y2="611.5"/>
<g>
	<path class="st1" d="M-431.5,591.2l-1.6-6.2c-0.6-2.6-2.6-4.6-5.1-5.5l-11.5-3.8c-3.9-1.6-5.2-7.8-5.2-9.1c1.9-1.5,3.9-4.2,3.9-6.5
		c0-2.3,1.3-2.6,1.3-2.6s1.3-3.2,1.3-5.2c0,0-0.3-1.3-1.3-1.3c0-1.4,0-4,0-7.8c0-6.4-3.2-5.8-2.6-6.5c0-1.5-1.8-5.2-9.1-5.2
		c-7.4,0-11.6,7-11.6,11.6c0,3.8,0,6.4,0,7.8c-1,0-1.3,1.3-1.3,1.3c0,1.9,1.3,5.2,1.3,5.2s1.3,0.3,1.3,2.6c0,2.3,2,4.9,3.9,6.5
		c0,1.2-1.3,7.4-5.2,9.1l-11.5,3.8c-2.5,0.8-4.4,2.9-5.1,5.5l-1.6,6.2"/>
	<path class="st1" d="M-443.2,544.2c0.6,0.2,1.2,0.4,1.3,0.4c0,0-2.2,11.5-2.6,12.9l12.5-13.1c3.5-0.8,6.6-2.1,9.1-3.8
		c4.2-2.6,6.8-6.2,6.8-10.3c0-7.9-9.8-14.2-22-14.2c-0.2,0-0.4,0-0.6,0c-0.2,0-0.4,0-0.6,0c-1.1,0-2.1,0.1-3.1,0.3
		c-8.2,1.1-14.7,5-16.9,10.2"/>
</g>
<g>
	<path class="st2" d="M175.1,75.4l3.7-0.6V55.3l-4.4,0.4l-1.1,3.5l-2.9,0.1l0.4-6.8h21.6l0,6.6l-2.3,0.3l-1.2-3.7l-4.3-0.4v19.4
		l3.6,0.6v2.3h-13V75.4z"/>
	<path class="st2" d="M194.3,69.1c0-1.4,0.2-2.7,0.7-3.9s1.1-2.3,1.9-3.2s1.9-1.6,3.1-2.1s2.6-0.8,4.2-0.8c1.3,0,2.4,0.2,3.4,0.5
		s1.7,0.8,2.3,1.4c0.6,0.6,1.1,1.3,1.4,2.1s0.5,1.7,0.5,2.7c0,0.7,0,1.3,0,1.8s-0.1,1-0.2,1.5h-11.2c0.2,1.9,0.6,3.3,1.5,4.3
		c0.8,1,2,1.5,3.6,1.5c0.8,0,1.6-0.1,2.5-0.2c0.9-0.2,1.8-0.4,2.6-0.8l0.9,2c-0.4,0.3-0.9,0.7-1.5,1s-1.2,0.5-1.9,0.7
		s-1.4,0.4-2.2,0.5c-0.8,0.1-1.5,0.2-2.3,0.1c-1.5,0-2.8-0.3-3.9-0.7s-2.1-1-2.9-1.8s-1.4-1.7-1.8-2.8
		C194.5,71.8,194.3,70.5,194.3,69.1z M206.1,66.5c0-0.4,0.1-0.8,0.1-1.3s0-0.9,0-1.3c0-0.4-0.1-0.8-0.3-1.2s-0.4-0.7-0.7-0.9
		c-0.2-0.1-0.4-0.2-0.7-0.3s-0.6-0.1-0.9-0.1c-0.6,0-1.1,0.2-1.6,0.5c-0.4,0.3-0.8,0.7-1,1.2s-0.5,1-0.6,1.7s-0.2,1.2-0.2,1.9H206.1
		z"/>
	<path class="st2" d="M214.4,71.3c0.2-0.6,0.4-1.2,0.9-1.7s0.9-0.9,1.5-1.3s1.3-0.7,2-0.9c0.7-0.3,1.4-0.5,2.2-0.6s1.4-0.3,2.1-0.3
		c0.7-0.1,1.3-0.1,1.8-0.1c0-0.9-0.1-1.6-0.2-2.1s-0.4-1-0.7-1.3c-0.3-0.3-0.7-0.5-1.1-0.6c-0.4-0.1-0.9-0.2-1.5-0.2
		c-0.7,0-1.3,0.1-1.9,0.2c-0.6,0.1-1.1,0.2-1.6,0.4c-0.5,0.2-0.9,0.3-1.2,0.5c-0.3,0.2-0.5,0.3-0.6,0.4l-1.1-2.5
		c0.2-0.1,0.5-0.3,0.9-0.5s1-0.4,1.7-0.7c0.7-0.2,1.5-0.4,2.4-0.5c0.9-0.2,2-0.2,3.1-0.2c1.1,0,2.1,0.1,3,0.3c0.9,0.2,1.7,0.5,2.3,1
		c0.7,0.5,1.2,1.2,1.5,2c0.4,0.9,0.5,1.9,0.5,3.2v9.7h2.1v1.7c-0.3,0.2-0.6,0.3-0.9,0.5s-0.7,0.2-1.1,0.3s-0.7,0.1-1.1,0.1
		c-0.4,0-0.7,0-1,0c-0.2,0-0.5,0-0.8-0.1s-0.6-0.1-0.9-0.3c-0.3-0.1-0.6-0.3-0.8-0.6c-0.2-0.2-0.3-0.6-0.4-0.9c-0.6,0.5-1.2,1-2,1.3
		c-0.8,0.3-1.7,0.5-2.7,0.5c-1.4,0-2.6-0.2-3.5-0.6c-0.9-0.4-1.7-0.9-2.2-1.5c-0.5-0.6-0.9-1.4-1-2.2
		C214.2,73,214.2,72.2,214.4,71.3z M220,72.3c0,1,0.3,1.8,0.9,2.3s1.5,0.6,2.6,0.5c0.3,0,0.6-0.1,0.8-0.2c0.2-0.1,0.5-0.2,0.7-0.4
		c0-0.9,0-1.8,0-2.8c0-0.9,0-1.8,0-2.8c-0.3,0-0.7,0-1.1,0.1c-0.4,0-0.7,0.1-1.1,0.2s-0.7,0.2-1,0.4s-0.6,0.4-0.9,0.6
		s-0.5,0.6-0.6,0.9S220,71.8,220,72.3z"/>
	<path class="st2" d="M234,69.2c0-1.6,0.2-3,0.8-4.2s1.2-2.3,2.1-3.1s2-1.5,3.2-2c1.2-0.5,2.5-0.7,3.9-0.8c0.5,0,1.1,0,1.7,0
		s1.2,0.1,1.7,0.2c0.5,0.1,1,0.2,1.5,0.3s0.8,0.2,1,0.4V65H247l-1.3-3c-0.3-0.2-0.6-0.3-1-0.3s-0.8-0.1-1.1-0.1
		c-0.5,0-1,0.1-1.5,0.4s-0.8,0.7-1.1,1.2c-0.3,0.5-0.6,1.1-0.7,1.9s-0.3,1.6-0.3,2.5c0,1.3,0.1,2.4,0.3,3.3c0.3,0.9,0.7,1.7,1.1,2.3
		s1.1,1,1.7,1.3c0.6,0.3,1.3,0.4,2.1,0.4c0.5,0,1,0,1.4-0.1s0.9-0.1,1.3-0.2c0.4-0.1,0.7-0.2,1.1-0.4c0.3-0.1,0.6-0.3,0.8-0.4l0.9,2
		c-0.9,0.7-1.9,1.3-3.2,1.7s-2.8,0.6-4.4,0.6c-1.5,0-2.7-0.2-3.8-0.7c-1.1-0.4-2-1.1-2.8-1.9c-0.8-0.8-1.3-1.7-1.7-2.8
		S234,70.5,234,69.2z"/>
	<path class="st2" d="M252.1,75.5l2.3-0.5V55.3l-2.2-0.9v-2.3l6.9-0.8l0.9,0.3v7.9l-0.3,1.7c0.5-0.5,1-0.8,1.5-1.1s1-0.5,1.6-0.7
		c0.5-0.2,1-0.3,1.5-0.3c0.5-0.1,0.9-0.1,1.4-0.1c1.2,0,2.1,0.2,2.8,0.6s1.3,1,1.6,1.7s0.6,1.6,0.8,2.7s0.2,2.2,0.2,3.5V75l2.2,0.4
		v2.2l-10.2,0v-2.2l2.3-0.5v-6.7c0-0.8,0-1.6-0.1-2.3s-0.2-1.3-0.4-1.8c-0.2-0.5-0.5-0.9-0.9-1.2c-0.4-0.3-1-0.4-1.7-0.4
		c-0.5,0-0.9,0.1-1.3,0.2c-0.4,0.1-0.7,0.3-1.1,0.6V75l1.6,0.4v2.2h-9.6V75.5z"/>
	<path class="st2" d="M170.6,115l2.8-0.7V95.6l-2.8-0.5v-2.8h5.8c0.4,0,0.8,0,1.2,0s0.8,0,1.3-0.1s0.9-0.1,1.4-0.1c0.5,0,1,0,1.6,0
		c1.3,0,2.5,0.1,3.7,0.3s2.2,0.6,3.1,1.1c0.9,0.5,1.6,1.3,2.1,2.2s0.8,2.2,0.8,3.7c0,1.3-0.2,2.5-0.7,3.6c-0.5,1-1.2,1.9-2.1,2.6
		c-0.9,0.7-1.9,1.2-3.1,1.6c-1.2,0.4-2.5,0.5-3.8,0.5c-0.6,0-1.2,0-1.6,0s-0.9,0-1.2,0v6.8l3.9,0.7v2.3h-12.4V115z M179.1,104.6
		c0.2,0,0.4,0.1,0.6,0.1c0.2,0,0.5,0,0.7,0.1s0.5,0,0.7,0s0.5,0,0.7,0c0.6,0,1.1-0.1,1.6-0.3c0.5-0.2,1-0.5,1.3-1s0.7-1,0.9-1.8
		s0.3-1.6,0.3-2.7c0-0.8-0.1-1.4-0.4-2c-0.2-0.6-0.6-1-1-1.4s-0.9-0.6-1.5-0.8c-0.6-0.2-1.2-0.3-1.9-0.3c-0.1,0-0.3,0-0.5,0
		s-0.4,0-0.6,0c-0.2,0-0.4,0-0.6,0.1s-0.3,0.1-0.4,0.1V104.6z"/>
	<path class="st2" d="M193,110.9c0.2-0.6,0.4-1.2,0.9-1.7s0.9-0.9,1.5-1.3s1.3-0.7,2-0.9c0.7-0.3,1.4-0.5,2.2-0.6s1.4-0.3,2.1-0.3
		c0.7-0.1,1.3-0.1,1.8-0.1c0-0.9-0.1-1.6-0.2-2.1s-0.4-1-0.7-1.3c-0.3-0.3-0.7-0.5-1.1-0.6c-0.4-0.1-0.9-0.2-1.5-0.2
		c-0.7,0-1.3,0.1-1.9,0.2c-0.6,0.1-1.1,0.2-1.6,0.4c-0.5,0.2-0.9,0.3-1.2,0.5c-0.3,0.2-0.5,0.3-0.6,0.4l-1.1-2.5
		c0.2-0.1,0.5-0.3,0.9-0.5s1-0.4,1.7-0.7c0.7-0.2,1.5-0.4,2.4-0.5c0.9-0.2,2-0.2,3.1-0.2c1.1,0,2.1,0.1,3,0.3c0.9,0.2,1.7,0.5,2.3,1
		c0.7,0.5,1.2,1.2,1.5,2c0.4,0.9,0.5,1.9,0.5,3.2v9.7h2.1v1.7c-0.3,0.2-0.6,0.3-0.9,0.5s-0.7,0.2-1.1,0.3s-0.7,0.1-1.1,0.1
		c-0.4,0-0.7,0-1,0c-0.2,0-0.5,0-0.8-0.1s-0.6-0.1-0.9-0.3c-0.3-0.1-0.6-0.3-0.8-0.6c-0.2-0.2-0.3-0.6-0.4-0.9c-0.6,0.5-1.2,1-2,1.3
		c-0.8,0.3-1.7,0.5-2.7,0.5c-1.4,0-2.6-0.2-3.5-0.6c-0.9-0.4-1.7-0.9-2.2-1.5c-0.5-0.6-0.9-1.4-1-2.2
		C192.8,112.6,192.8,111.8,193,110.9z M198.6,111.9c0,1,0.3,1.8,0.9,2.3c0.6,0.5,1.5,0.6,2.6,0.5c0.3,0,0.6-0.1,0.8-0.2
		c0.2-0.1,0.5-0.2,0.7-0.4c0-0.9,0-1.8,0-2.8c0-0.9,0-1.8,0-2.8c-0.3,0-0.7,0-1.1,0.1c-0.4,0-0.7,0.1-1.1,0.2
		c-0.4,0.1-0.7,0.2-1,0.4s-0.6,0.4-0.9,0.6s-0.5,0.6-0.6,0.9S198.6,111.4,198.6,111.9z"/>
	<path class="st2" d="M213,115.1l2-0.4v-10.6l-2.2-1.5v-2l6-1.8L220,99v3.2c0.1-0.5,0.4-1,0.8-1.5s0.8-0.8,1.3-1.1s0.9-0.5,1.4-0.7
		s0.9-0.2,1.2-0.2c0.4,0,0.7,0,1,0s0.6,0.1,0.7,0.1v5.1c-0.1-0.1-0.3-0.2-0.5-0.3s-0.5-0.2-0.7-0.2c-0.3-0.1-0.5-0.1-0.8-0.1
		s-0.5,0-0.7,0c-0.5,0-0.8,0-1.2,0.1s-0.6,0.1-0.9,0.2c-0.2,0.1-0.4,0.1-0.5,0.2c-0.1,0.1-0.2,0.1-0.3,0.1v10.7l3.8,0.5v2.2H213
		V115.1z"/>
	<path class="st2" d="M229.9,102.1h-2.4v-1.8c0.6-0.1,1.1-0.2,1.6-0.4c0.5-0.2,0.9-0.4,1.3-0.8c0.3-0.3,0.7-0.8,1-1.5
		c0.3-0.7,0.7-1.6,1-2.7h2.7v4.3h5.5v2.9h-5.3v5.9c0,1.4,0,2.6,0.1,3.4s0.2,1.5,0.3,1.9c0.2,0.4,0.4,0.7,0.6,0.9s0.6,0.2,1,0.2
		c0.2,0,0.5,0,0.7,0s0.5-0.1,0.8-0.1c0.3,0,0.5-0.1,0.7-0.2s0.4-0.1,0.6-0.2l0.8,1.8c-0.3,0.3-0.6,0.5-1,0.8
		c-0.4,0.2-0.9,0.5-1.5,0.6c-0.6,0.2-1.2,0.3-1.9,0.4c-0.7,0.1-1.4,0.2-2.1,0.2c-0.9,0-1.7-0.1-2.3-0.4s-1.1-0.6-1.4-1.1
		c-0.3-0.5-0.6-1.1-0.7-1.8c-0.1-0.7-0.2-1.6-0.2-2.7V102.1z"/>
	<path class="st2" d="M247.4,115l3.7-0.6V94.9l-4.4,0.4l-1.1,3.5l-2.9,0.1l0.4-6.8h21.6l0,6.6l-2.3,0.3l-1.2-3.7l-4.3-0.4v19.4
		l3.6,0.6v2.3h-13V115z"/>
	<path class="st2" d="M266.2,115.1l2.2-0.5v-10l-2.1-2.3v-1.5l6.4-2.1l1.4,0.4v15.5l2.3,0.4v2.2h-10.2V115.1z M270.8,95.9
		c-0.4,0-0.8-0.1-1.2-0.2c-0.4-0.1-0.8-0.3-1.1-0.6c-0.3-0.3-0.6-0.6-0.7-1s-0.3-0.8-0.3-1.3c0-0.5,0.1-1,0.4-1.4s0.5-0.8,0.9-1.1
		s0.8-0.6,1.3-0.8c0.5-0.2,0.9-0.3,1.4-0.3c0.6,0,1.1,0.1,1.5,0.2s0.8,0.4,1,0.7s0.5,0.6,0.6,1s0.2,0.8,0.2,1.2c0,0.5-0.1,1-0.3,1.5
		s-0.5,0.8-0.9,1.1c-0.4,0.3-0.8,0.6-1.3,0.7S271.2,95.9,270.8,95.9z"/>
	<path class="st2" d="M278.6,115.1l2-0.4v-10.6l-2.2-1.5v-2l6-1.8l1.2,0.3v2.4c0.3-0.4,0.7-0.7,1.2-1s0.9-0.6,1.4-0.8
		c0.5-0.2,1-0.4,1.6-0.6s1.1-0.2,1.7-0.3c0.6,0,1.1,0,1.7,0s1.1,0.2,1.6,0.4c0.5,0.2,0.9,0.5,1.3,0.8c0.4,0.3,0.7,0.8,0.9,1.3
		c0.3-0.3,0.7-0.6,1.1-0.9s0.9-0.6,1.3-0.8c0.5-0.2,1-0.4,1.6-0.6c0.6-0.1,1.2-0.2,1.9-0.2c1.1,0,2,0.2,2.7,0.5s1.4,0.8,1.9,1.5
		c0.5,0.7,0.8,1.5,1.1,2.4c0.2,1,0.3,2,0.3,3.3v8.2l2.3,0.4v2.2h-9.8v-2.2l1.9-0.5v-7.5c0-1-0.1-1.9-0.2-2.5s-0.3-1.1-0.6-1.4
		c-0.3-0.3-0.6-0.6-1-0.7c-0.4-0.1-0.9-0.2-1.5-0.2c-0.4,0-0.8,0.1-1.2,0.2s-0.8,0.4-1.1,0.6c0.1,0.3,0.1,0.6,0.1,1c0,0.4,0,1,0,1.7
		v8.7l2.3,0.4v2.2h-10.3v-2.2l2.3-0.5V107c0-1-0.1-1.9-0.2-2.5c-0.2-0.6-0.4-1.1-0.7-1.4c-0.3-0.3-0.7-0.5-1.1-0.6
		c-0.5-0.1-1-0.1-1.6-0.1c-0.1,0-0.3,0-0.5,0.1c-0.2,0-0.4,0.1-0.6,0.2c-0.2,0.1-0.4,0.2-0.6,0.2c-0.2,0.1-0.3,0.2-0.4,0.3v11.4
		l2.1,0.5v2.2h-9.8V115.1z"/>
	<path class="st2" d="M313.1,108.7c0-1.4,0.2-2.7,0.7-3.9s1.1-2.3,1.9-3.2s1.9-1.6,3.1-2.1s2.6-0.8,4.2-0.8c1.3,0,2.4,0.2,3.4,0.5
		s1.7,0.8,2.3,1.4c0.6,0.6,1.1,1.3,1.4,2.1c0.3,0.8,0.5,1.7,0.5,2.7c0,0.7,0,1.3,0,1.8c-0.1,0.5-0.1,1-0.2,1.5h-11.2
		c0.2,1.9,0.6,3.3,1.5,4.3c0.8,1,2,1.5,3.6,1.5c0.8,0,1.6-0.1,2.5-0.2c0.9-0.2,1.8-0.4,2.6-0.8l0.9,2c-0.4,0.3-0.9,0.7-1.5,1
		s-1.2,0.5-1.9,0.7s-1.4,0.4-2.2,0.5c-0.8,0.1-1.5,0.2-2.3,0.1c-1.5,0-2.8-0.3-3.9-0.7s-2.1-1-2.9-1.8s-1.4-1.7-1.8-2.8
		C313.3,111.4,313.1,110.1,313.1,108.7z M325,106.1c0-0.4,0.1-0.8,0.1-1.3s0-0.9,0-1.3c0-0.4-0.1-0.8-0.3-1.2
		c-0.2-0.4-0.4-0.7-0.7-0.9c-0.2-0.1-0.4-0.2-0.7-0.3s-0.6-0.1-0.9-0.1c-0.6,0-1.1,0.2-1.6,0.5c-0.4,0.3-0.8,0.7-1,1.2
		s-0.5,1-0.6,1.7s-0.2,1.2-0.2,1.9H325z"/>
</g>
<g>
	<path class="st2" d="M336.8,116c0-0.7,0.2-1.3,0.5-1.6s0.8-0.6,1.4-0.6c0.6,0,1.1,0.2,1.5,0.6s0.5,0.9,0.5,1.6
		c0,0.7-0.2,1.2-0.5,1.6c-0.4,0.4-0.8,0.6-1.5,0.6c-0.5,0-1-0.2-1.4-0.5C337,117.3,336.8,116.7,336.8,116z"/>
	<path class="st2" d="M353,118c-2.6,0-4.5-0.8-5.9-2.4c-1.4-1.6-2.1-3.8-2.1-6.7c0-3,0.7-5.2,2.1-6.8c1.4-1.6,3.5-2.4,6.1-2.4
		c0.8,0,1.7,0.1,2.5,0.3s1.5,0.4,2,0.6l-0.8,2.3c-0.6-0.2-1.2-0.4-1.9-0.6c-0.7-0.2-1.3-0.2-1.9-0.2c-3.6,0-5.4,2.3-5.4,6.9
		c0,2.2,0.4,3.8,1.3,5s2.2,1.7,3.9,1.7c1.5,0,3-0.3,4.5-1v2.4C356.3,117.7,354.8,118,353,118z"/>
	<path class="st2" d="M376.9,108.8c0,2.9-0.7,5.1-2.2,6.7c-1.5,1.6-3.5,2.4-6,2.4c-1.6,0-3-0.4-4.2-1.1s-2.2-1.8-2.8-3.2s-1-3-1-4.9
		c0-2.9,0.7-5.1,2.2-6.7c1.4-1.6,3.4-2.4,6-2.4c2.5,0,4.4,0.8,5.9,2.5S376.9,106,376.9,108.8z M363.5,108.8c0,2.3,0.5,4,1.4,5.2
		s2.2,1.8,4,1.8s3.1-0.6,4-1.8c0.9-1.2,1.4-2.9,1.4-5.2c0-2.2-0.5-4-1.4-5.1c-0.9-1.2-2.2-1.7-4-1.7c-1.8,0-3.1,0.6-4,1.7
		C363.9,104.8,363.5,106.5,363.5,108.8z"/>
	<path class="st2" d="M404.1,117.7v-11.5c0-1.4-0.3-2.5-0.9-3.2c-0.6-0.7-1.5-1.1-2.8-1.1c-1.7,0-2.9,0.5-3.7,1.4
		c-0.8,1-1.2,2.4-1.2,4.4v9.9h-2.7v-11.5c0-1.4-0.3-2.5-0.9-3.2c-0.6-0.7-1.5-1.1-2.8-1.1c-1.7,0-2.9,0.5-3.7,1.5
		c-0.8,1-1.2,2.7-1.2,4.9v9.3h-2.7V100h2.2l0.4,2.4h0.1c0.5-0.9,1.2-1.5,2.1-2c0.9-0.5,1.9-0.7,3.1-0.7c2.8,0,4.6,1,5.4,3h0.1
		c0.5-0.9,1.3-1.7,2.3-2.2c1-0.5,2.1-0.8,3.4-0.8c2,0,3.5,0.5,4.5,1.5c1,1,1.5,2.7,1.5,4.9v11.5H404.1z"/>
</g>
<line class="st3" x1="40" y1="103.9" x2="140.1" y2="103.9"/>
<line class="st3" x1="90.1" y1="115.4" x2="90.1" y2="123"/>
<line class="st3" x1="66.3" y1="123.5" x2="113.9" y2="123.5"/>
<g>
	<path class="st3" d="M114.6,103.2l-1.3-5.1c-0.5-2.1-2.1-3.8-4.2-4.5l-9.5-3.2c-3.2-1.3-4.3-6.5-4.3-7.5c1.5-1.3,3.2-3.5,3.2-5.3
		s1.1-2.1,1.1-2.1s1.1-2.7,1.1-4.3c0,0-0.3-1.1-1.1-1.1c0-1.1,0-3.3,0-6.4c0-5.2-2.7-4.8-2.1-5.3c0-1.2-1.5-4.3-7.5-4.3
		c-6.1,0-9.6,5.8-9.6,9.6c0,3.1,0,5.3,0,6.4c-0.8,0-1.1,1.1-1.1,1.1c0,1.6,1.1,4.3,1.1,4.3s1.1,0.3,1.1,2.1s1.7,4.1,3.2,5.3
		c0,1-1.1,6.1-4.3,7.5L71,93.5c-2.1,0.7-3.7,2.4-4.2,4.5l-1.3,5.1"/>
</g>
<path class="st3" d="M75.7,47.4H49.3c-6.6,0-12,5.4-12,12v43.2c0,6.6,5.4,12,12,12h84c6.6,0,9.6-5.4,9.6-12V59.4c0-6.6-3-12-9.6-12
	h-28.8H75.7z"/>
</svg>
