<svg id="Layer_1" data-name="Layer 1" xmlns="http://www.w3.org/2000/svg" viewBox="0 0 460 167"><defs><style>.cls-1{fill:#5263ee;}.cls-2{fill:none;stroke:#55e0b5;stroke-linecap:round;stroke-linejoin:round;stroke-width:3px;}</style></defs><title>TeachPartTime - Logo</title><path class="cls-1" d="M175.14,75.39l3.71-.63V55.33l-4.42.44-1.11,3.46-2.92.15.39-6.75h21.58l0,6.56-2.27.27-1.24-3.69-4.27-.44V74.75l3.63.64v2.26h-13Z"/><path class="cls-1" d="M194.28,69.09a11.06,11.06,0,0,1,.68-3.88A9.31,9.31,0,0,1,196.91,62,9.19,9.19,0,0,1,200,59.89a10.43,10.43,0,0,1,4.16-.79,10,10,0,0,1,3.35.5,6.15,6.15,0,0,1,2.3,1.39,5.71,5.71,0,0,1,1.35,2.14,8.72,8.72,0,0,1,.5,2.71,13.68,13.68,0,0,1,0,1.8q-.08.79-.18,1.47H200.23a7.36,7.36,0,0,0,1.47,4.3,4.53,4.53,0,0,0,3.63,1.45,13.59,13.59,0,0,0,2.51-.25,11.87,11.87,0,0,0,2.63-.83l.85,2a7.42,7.42,0,0,1-1.49,1,12,12,0,0,1-1.91.74,15.74,15.74,0,0,1-2.18.48,13.5,13.5,0,0,1-2.33.14,12.26,12.26,0,0,1-3.89-.66,7.77,7.77,0,0,1-2.87-1.76,7.49,7.49,0,0,1-1.77-2.8A11,11,0,0,1,194.28,69.09Zm11.86-2.58q0-.6.1-1.28a8.54,8.54,0,0,0,0-1.34,4.24,4.24,0,0,0-.28-1.22,2,2,0,0,0-.71-.9,2.07,2.07,0,0,0-.68-.31,3.47,3.47,0,0,0-.9-.1,2.57,2.57,0,0,0-1.56.46,3.51,3.51,0,0,0-1,1.19,5.94,5.94,0,0,0-.58,1.65,14.35,14.35,0,0,0-.25,1.85Z"/><path class="cls-1" d="M214.41,71.3a3.93,3.93,0,0,1,.87-1.68,6.5,6.5,0,0,1,1.55-1.29,10.54,10.54,0,0,1,2-.93,19.09,19.09,0,0,1,4.29-1,18.3,18.3,0,0,1,1.83-.1,8,8,0,0,0-.23-2.09A2.92,2.92,0,0,0,224,63a2.29,2.29,0,0,0-1.08-.63,5.72,5.72,0,0,0-1.46-.17,10.5,10.5,0,0,0-1.94.17,13.4,13.4,0,0,0-1.59.4,8,8,0,0,0-1.16.46,5.28,5.28,0,0,0-.64.36l-1.1-2.48a5.77,5.77,0,0,1,.92-.55,10.86,10.86,0,0,1,1.7-.66,18,18,0,0,1,2.43-.55,19.5,19.5,0,0,1,3.1-.23,14,14,0,0,1,3,.3,5.89,5.89,0,0,1,2.34,1,4.93,4.93,0,0,1,1.53,2,8.31,8.31,0,0,1,.55,3.25v9.73h2.11v1.72a3.77,3.77,0,0,1-.94.47,7.16,7.16,0,0,1-1.09.27q-.56.1-1.12.14t-1,0a6.22,6.22,0,0,1-.79-.06,3.51,3.51,0,0,1-.94-.27,2.39,2.39,0,0,1-.8-.56,1.45,1.45,0,0,1-.37-.94,7.28,7.28,0,0,1-2,1.31,6.42,6.42,0,0,1-2.69.52,9.41,9.41,0,0,1-3.52-.57,5.48,5.48,0,0,1-2.2-1.51,4.43,4.43,0,0,1-1-2.17A6.27,6.27,0,0,1,214.41,71.3Zm5.58,1a2.69,2.69,0,0,0,.89,2.26,3.35,3.35,0,0,0,2.59.45,2.75,2.75,0,0,0,.79-.23,4,4,0,0,0,.66-.39q0-1.39,0-2.76t0-2.76q-.5,0-1.06.06a7.16,7.16,0,0,0-1.11.2,5.15,5.15,0,0,0-1,.4,3.65,3.65,0,0,0-.89.64,2.77,2.77,0,0,0-.61.91A3.16,3.16,0,0,0,220,72.25Z"/><path class="cls-1" d="M234,69.19A10.44,10.44,0,0,1,234.8,65a9.25,9.25,0,0,1,2.14-3.13,9.47,9.47,0,0,1,3.18-2A12.19,12.19,0,0,1,244,59.1q.82,0,1.72,0t1.72.16a14.89,14.89,0,0,1,1.47.27,4.14,4.14,0,0,1,1,.37V65H247l-1.27-3a2.49,2.49,0,0,0-1-.34,9.94,9.94,0,0,0-1.1-.06,2.79,2.79,0,0,0-1.48.4A3.49,3.49,0,0,0,241,63.19a6.5,6.5,0,0,0-.75,1.88,12.39,12.39,0,0,0-.32,2.53,10.65,10.65,0,0,0,.35,3.34,6.34,6.34,0,0,0,1.14,2.28,4.45,4.45,0,0,0,1.71,1.3,5.25,5.25,0,0,0,2.05.41,10.25,10.25,0,0,0,1.42-.1,11.32,11.32,0,0,0,1.28-.25,7.07,7.07,0,0,0,1.06-.36,3.67,3.67,0,0,0,.77-.44l.85,2a8.86,8.86,0,0,1-3.22,1.71,14.86,14.86,0,0,1-4.38.6,10.21,10.21,0,0,1-3.83-.67,7.68,7.68,0,0,1-4.51-4.68A10.81,10.81,0,0,1,234,69.19Z"/><path class="cls-1" d="M252.06,75.46l2.3-.45V55.35l-2.18-.92V52.17l6.94-.79.93.29V59.6l-.34,1.66a7.48,7.48,0,0,1,1.53-1.1,8.66,8.66,0,0,1,1.57-.65,9.21,9.21,0,0,1,1.51-.32,11.5,11.5,0,0,1,1.36-.09,5.78,5.78,0,0,1,2.8.59,4,4,0,0,1,1.64,1.68,7.45,7.45,0,0,1,.76,2.66,29.26,29.26,0,0,1,.16,3.51V75l2.19.44v2.19l-10.23,0V75.46l2.34-.45V68.34q0-1.24-.06-2.29a6,6,0,0,0-.36-1.8,2.58,2.58,0,0,0-.89-1.18,2.81,2.81,0,0,0-1.66-.43,4.49,4.49,0,0,0-1.26.17,2.94,2.94,0,0,0-1.06.57V75l1.58.42v2.19h-9.59Z"/><path class="cls-1" d="M170.61,115l2.82-.69V95.56L170.66,95V92.23h5.77q.6,0,1.22,0l1.29-.08,1.42-.08q.75,0,1.6,0a21.57,21.57,0,0,1,3.71.31,8.72,8.72,0,0,1,3.09,1.12,5.9,5.9,0,0,1,2.11,2.23,7.54,7.54,0,0,1,.78,3.66,8,8,0,0,1-.75,3.55,7.38,7.38,0,0,1-2.05,2.58,9.05,9.05,0,0,1-3.08,1.57,13.2,13.2,0,0,1-3.82.53H180.3q-.69,0-1.19,0v6.8l3.95.68v2.26H170.61Zm8.49-10.36.6.09.73.06.74,0h.66a4.49,4.49,0,0,0,1.6-.29,3.19,3.19,0,0,0,1.33-1,5.07,5.07,0,0,0,.9-1.78A9.45,9.45,0,0,0,186,99a4.9,4.9,0,0,0-.36-2,3.59,3.59,0,0,0-1-1.36,4.35,4.35,0,0,0-1.51-.8,6.69,6.69,0,0,0-1.88-.28l-.52,0-.64,0-.6.06a1.74,1.74,0,0,0-.39.09Z"/><path class="cls-1" d="M193,110.9a3.93,3.93,0,0,1,.87-1.68,6.5,6.5,0,0,1,1.55-1.29,10.54,10.54,0,0,1,2-.93,19.09,19.09,0,0,1,4.29-1,18.3,18.3,0,0,1,1.83-.1,8,8,0,0,0-.23-2.09,2.92,2.92,0,0,0-.67-1.26,2.29,2.29,0,0,0-1.08-.63,5.72,5.72,0,0,0-1.46-.17,10.5,10.5,0,0,0-1.94.17,13.4,13.4,0,0,0-1.59.4,7.92,7.92,0,0,0-1.16.46,5.35,5.35,0,0,0-.64.36l-1.1-2.48a5.77,5.77,0,0,1,.92-.55,10.86,10.86,0,0,1,1.7-.66,18,18,0,0,1,2.43-.55,19.5,19.5,0,0,1,3.1-.23,14,14,0,0,1,3,.3,5.89,5.89,0,0,1,2.34,1,4.93,4.93,0,0,1,1.53,2,8.31,8.31,0,0,1,.55,3.25v9.73h2.11v1.72a3.77,3.77,0,0,1-.94.47,7.16,7.16,0,0,1-1.09.27q-.56.1-1.12.14t-1,0a6.22,6.22,0,0,1-.79-.06,3.51,3.51,0,0,1-.94-.27,2.4,2.4,0,0,1-.8-.56,1.45,1.45,0,0,1-.37-.94,7.29,7.29,0,0,1-2,1.31,6.42,6.42,0,0,1-2.69.52,9.42,9.42,0,0,1-3.52-.57,5.48,5.48,0,0,1-2.2-1.51,4.43,4.43,0,0,1-1-2.17A6.27,6.27,0,0,1,193,110.9Zm5.58,1a2.69,2.69,0,0,0,.89,2.26,3.34,3.34,0,0,0,2.59.45,2.75,2.75,0,0,0,.79-.23,4,4,0,0,0,.66-.39q0-1.39,0-2.76t0-2.76q-.5,0-1.06.06a7,7,0,0,0-1.11.2,5.09,5.09,0,0,0-1,.4,3.66,3.66,0,0,0-.89.64,2.77,2.77,0,0,0-.61.91A3.16,3.16,0,0,0,198.6,111.85Z"/><path class="cls-1" d="M213,115.06l2-.4v-10.6l-2.19-1.55v-2l6-1.77L220,99v3.16a3.53,3.53,0,0,1,.77-1.45A5.86,5.86,0,0,1,222,99.61a6.21,6.21,0,0,1,1.4-.68,4,4,0,0,1,1.21-.23q.56,0,1,0a2.36,2.36,0,0,1,.69.15V104a1.65,1.65,0,0,0-.55-.34,5.33,5.33,0,0,0-.75-.24,6.81,6.81,0,0,0-.79-.14,5.66,5.66,0,0,0-.67,0,7.8,7.8,0,0,0-1.19.08,6.57,6.57,0,0,0-.86.19,3.85,3.85,0,0,0-.55.2l-.27.15v10.68l3.75.55v2.19H213Z"/><path class="cls-1" d="M229.92,102.1h-2.45v-1.82a9.23,9.23,0,0,0,1.64-.42,4,4,0,0,0,1.31-.76,5.24,5.24,0,0,0,1-1.46,16.7,16.7,0,0,0,1-2.73h2.71v4.3h5.51v2.88h-5.25V108q0,2.16.1,3.42a8.24,8.24,0,0,0,.32,1.92,1.41,1.41,0,0,0,.6.85,2.1,2.1,0,0,0,1,.19,7.2,7.2,0,0,0,.73,0c.27,0,.53-.06.79-.11a6.51,6.51,0,0,0,.73-.18,2.81,2.81,0,0,0,.56-.23l.84,1.82a4.4,4.4,0,0,1-1,.77,8.42,8.42,0,0,1-1.51.64,13.26,13.26,0,0,1-4,.6,6.37,6.37,0,0,1-2.3-.35,3.12,3.12,0,0,1-1.43-1.08,4.46,4.46,0,0,1-.72-1.85,15.22,15.22,0,0,1-.2-2.67Z"/><path class="cls-1" d="M247.39,115l3.71-.63V94.93l-4.42.44-1.11,3.46-2.92.15.39-6.75h21.58l0,6.56-2.27.27-1.24-3.69-4.27-.44v19.42l3.63.64v2.26h-13Z"/><path class="cls-1" d="M266.24,115.06l2.18-.45v-10l-2.06-2.32v-1.5l6.38-2.06,1.37.4v15.53l2.32.42v2.19H266.24Zm4.51-19.16a3.74,3.74,0,0,1-1.23-.21,3.33,3.33,0,0,1-1.06-.6,3,3,0,0,1-.74-1,2.81,2.81,0,0,1-.28-1.27,3,3,0,0,1,.35-1.43,4,4,0,0,1,.92-1.14,4.38,4.38,0,0,1,1.26-.76,3.85,3.85,0,0,1,1.41-.27,4.11,4.11,0,0,1,1.49.24,2.81,2.81,0,0,1,1,.66,2.65,2.65,0,0,1,.6,1,3.51,3.51,0,0,1,.19,1.18,3.27,3.27,0,0,1-.33,1.48,3.59,3.59,0,0,1-.89,1.14,3.94,3.94,0,0,1-1.27.73A4.33,4.33,0,0,1,270.76,95.9Z"/><path class="cls-1" d="M278.6,115.06l2-.4v-10.6l-2.19-1.55v-2l6-1.77,1.19.31v2.38a7.8,7.8,0,0,1,1.17-1,9.9,9.9,0,0,1,1.43-.85,9.55,9.55,0,0,1,1.6-.6,7.92,7.92,0,0,1,1.68-.28,10,10,0,0,1,1.71,0,6,6,0,0,1,1.56.39,4.27,4.27,0,0,1,1.29.81,4,4,0,0,1,.93,1.31,12.51,12.51,0,0,1,1.11-.92,8.47,8.47,0,0,1,1.35-.81,8.31,8.31,0,0,1,1.6-.57,7.86,7.86,0,0,1,1.9-.22,6.63,6.63,0,0,1,2.74.52,4.72,4.72,0,0,1,1.88,1.5,6.58,6.58,0,0,1,1.08,2.41,13.88,13.88,0,0,1,.35,3.26v8.23l2.26.44v2.19h-9.85v-2.19l1.89-.45v-7.49a13.28,13.28,0,0,0-.19-2.48,3.35,3.35,0,0,0-.59-1.44,1.88,1.88,0,0,0-1-.67,6.28,6.28,0,0,0-1.52-.16,3.37,3.37,0,0,0-1.21.25,5.79,5.79,0,0,0-1.13.57,8,8,0,0,1,.12,1q0,.6,0,1.72v8.72l2.29.44v2.19H289.75v-2.19l2.29-.47V107a10.36,10.36,0,0,0-.24-2.49,3.33,3.33,0,0,0-.7-1.44,2,2,0,0,0-1.14-.62,6.39,6.39,0,0,0-1.57-.06,3.48,3.48,0,0,0-.5.09,5.44,5.44,0,0,0-1.18.43,1.37,1.37,0,0,0-.39.28v11.41l2.11.45v2.19H278.6Z"/><path class="cls-1" d="M313.13,108.69a11.05,11.05,0,0,1,.68-3.88,9.31,9.31,0,0,1,1.95-3.17,9.19,9.19,0,0,1,3.11-2.14A10.43,10.43,0,0,1,323,98.7a10,10,0,0,1,3.35.5,6.15,6.15,0,0,1,2.3,1.39,5.71,5.71,0,0,1,1.35,2.14,8.71,8.71,0,0,1,.5,2.71,13.69,13.69,0,0,1,0,1.8q-.08.79-.18,1.47H319.08a7.36,7.36,0,0,0,1.47,4.3,4.53,4.53,0,0,0,3.63,1.45,13.64,13.64,0,0,0,2.51-.25,11.84,11.84,0,0,0,2.63-.83l.85,2a7.42,7.42,0,0,1-1.49,1,12,12,0,0,1-1.91.74,15.74,15.74,0,0,1-2.18.48,13.5,13.5,0,0,1-2.33.14,12.26,12.26,0,0,1-3.89-.66,7.76,7.76,0,0,1-2.87-1.76,7.49,7.49,0,0,1-1.77-2.8A11,11,0,0,1,313.13,108.69ZM325,106.12c0-.4.06-.82.1-1.28a8.54,8.54,0,0,0,0-1.34,4.23,4.23,0,0,0-.28-1.22,2,2,0,0,0-.71-.9,2.06,2.06,0,0,0-.68-.31,3.45,3.45,0,0,0-.9-.11,2.58,2.58,0,0,0-1.56.46,3.51,3.51,0,0,0-1,1.19,5.93,5.93,0,0,0-.58,1.65,14.35,14.35,0,0,0-.25,1.85Z"/><path class="cls-1" d="M336.81,116a2.4,2.4,0,0,1,.49-1.63,1.78,1.78,0,0,1,1.41-.56,1.9,1.9,0,0,1,1.46.56,2.3,2.3,0,0,1,.52,1.63,2.26,2.26,0,0,1-.53,1.61,2.11,2.11,0,0,1-2.81.06A2.2,2.2,0,0,1,336.81,116Z"/><path class="cls-1" d="M353,118a7.53,7.53,0,0,1-5.94-2.36A9.7,9.7,0,0,1,345,109q0-4.43,2.14-6.85a7.69,7.69,0,0,1,6.08-2.42,12.07,12.07,0,0,1,2.55.27,8.39,8.39,0,0,1,2,.64l-.82,2.27a12.63,12.63,0,0,0-1.93-.59,8.66,8.66,0,0,0-1.85-.23q-5.38,0-5.38,6.86a8.17,8.17,0,0,0,1.31,5,4.57,4.57,0,0,0,3.89,1.74,11.92,11.92,0,0,0,4.53-1v2.37A9.65,9.65,0,0,1,353,118Z"/><path class="cls-1" d="M376.94,108.83a9.74,9.74,0,0,1-2.18,6.74,7.66,7.66,0,0,1-6,2.43,8,8,0,0,1-4.21-1.11,7.34,7.34,0,0,1-2.84-3.19,11.12,11.12,0,0,1-1-4.87,9.73,9.73,0,0,1,2.16-6.73,7.64,7.64,0,0,1,6-2.41,7.47,7.47,0,0,1,5.89,2.47A9.7,9.7,0,0,1,376.94,108.83Zm-13.45,0a8.38,8.38,0,0,0,1.35,5.16,5.37,5.37,0,0,0,8,0,8.35,8.35,0,0,0,1.36-5.17,8.21,8.21,0,0,0-1.36-5.12,4.79,4.79,0,0,0-4-1.75,4.71,4.71,0,0,0-4,1.72A8.29,8.29,0,0,0,363.48,108.83Z"/><path class="cls-1" d="M404.14,117.67V106.18a4.77,4.77,0,0,0-.9-3.17,3.49,3.49,0,0,0-2.8-1.05,4.53,4.53,0,0,0-3.69,1.43,6.82,6.82,0,0,0-1.19,4.42v9.86h-2.67V106.18A4.77,4.77,0,0,0,392,103a3.51,3.51,0,0,0-2.82-1.05,4.37,4.37,0,0,0-3.68,1.51q-1.17,1.51-1.17,4.94v9.27h-2.67V100h2.18l.44,2.42h.13a5.26,5.26,0,0,1,2.13-2,6.53,6.53,0,0,1,3.09-.73q4.14,0,5.41,3h.13a5.63,5.63,0,0,1,2.29-2.19,7.11,7.11,0,0,1,3.42-.81,6,6,0,0,1,4.49,1.54q1.49,1.54,1.49,4.92v11.52Z"/><line class="cls-2" x1="40.04" y1="103.9" x2="140.14" y2="103.9"/><line class="cls-2" x1="90.09" y1="115.39" x2="90.09" y2="123"/><line class="cls-2" x1="66.26" y1="123.5" x2="113.93" y2="123.5"/><path class="cls-2" d="M114.6,103.16,113.32,98a6.39,6.39,0,0,0-4.18-4.51l-9.46-3.15c-3.2-1.33-4.26-6.46-4.26-7.46,1.53-1.27,3.2-3.46,3.2-5.33s1.07-2.13,1.07-2.13a15.52,15.52,0,0,0,1.07-4.26s-.27-1.07-1.07-1.07V63.73c0-5.24-2.66-4.8-2.13-5.33,0-1.24-1.51-4.26-7.46-4.26s-9.59,5.77-9.59,9.59v6.39c-.8,0-1.07,1.07-1.07,1.07a15.52,15.52,0,0,0,1.07,4.26s1.07.27,1.07,2.13,1.67,4.06,3.2,5.33c0,1-1.07,6.13-4.26,7.46L71,93.53A6.39,6.39,0,0,0,66.86,98l-1.28,5.12"/><path class="cls-2" d="M75.69,47.39H49.29a12,12,0,0,0-12,12V102.6a12,12,0,0,0,12,12h84c6.63,0,9.6-5.37,9.6-12V59.39c0-6.63-3-12-9.6-12H75.69Z"/></svg>